<svg xmlns="http://www.w3.org/2000/svg" viewBox="0 0 960 690" role="img" aria-labelledby="title desc">
  <title id="title">中国省级行政区轮廓示意图</title>
  <desc id="desc">用于资产看板交互定位的中国地图轮廓。</desc>
  <g fill="#dce9e4" stroke="#b8ccc4" stroke-width="1.1" stroke-linejoin="round" vector-effect="non-scaling-stroke">
  <path class="" data-province="甘肃" d="M481.7 313.8L483.3 313.0L486.8 313.6L487.3 315.0L485.7 316.7L489.3 317.2L490.3 319.5L494.3 321.9L496.5 325.5L494.9 327.2L498.4 335.5L498.2 338.3L496.9 339.2L496.4 341.5L498.2 344.9L500.2 345.9L502.7 345.8L502.1 346.3L502.7 347.8L504.3 349.8L505.9 349.3L507.8 350.4L505.5 350.7L505.5 351.5L508.6 351.2L510.1 351.7L511.7 354.0L512.7 354.3L514.0 352.9L514.5 350.2L513.2 348.9L514.6 348.7L513.5 346.0L514.1 345.4L516.0 345.4L518.1 346.4L520.0 345.3L520.9 344.3L519.8 342.5L520.9 341.2L521.4 338.8L519.4 336.3L514.5 335.2L514.5 332.0L513.5 330.8L514.3 330.2L514.6 326.9L516.1 326.6L516.8 324.5L515.7 322.7L516.6 321.4L516.8 317.9L519.0 317.8L521.2 319.3L525.1 319.2L526.6 320.1L526.6 323.0L535.9 326.0L538.2 329.0L543.1 330.0L548.4 333.5L548.0 340.2L545.2 342.5L547.1 351.8L545.2 354.0L541.9 354.2L540.0 353.7L537.0 355.0L536.4 354.1L533.6 353.2L533.5 354.4L532.5 354.9L535.0 359.6L533.1 360.1L525.5 361.2L523.0 358.5L520.9 357.5L518.7 357.4L515.6 357.7L514.4 358.6L514.6 360.6L515.3 361.8L514.4 364.1L511.8 367.1L517.2 370.8L517.5 372.6L517.0 373.3L515.4 372.8L515.9 375.5L514.8 376.1L513.4 380.0L515.5 385.7L514.5 386.7L512.9 385.3L511.6 385.4L509.5 386.4L508.0 385.3L506.8 385.4L502.5 389.6L503.0 391.4L505.5 392.6L505.5 396.4L505.1 397.4L501.3 399.2L499.2 398.7L497.4 399.4L498.2 401.8L492.9 404.5L486.1 403.5L480.6 399.9L482.4 395.8L481.2 394.3L480.5 391.8L482.0 390.8L480.7 390.1L478.8 387.7L478.6 385.2L468.8 383.5L469.4 381.7L467.5 382.4L465.0 382.5L463.6 381.4L462.6 374.9L460.8 374.0L459.7 372.5L457.4 372.9L454.3 375.4L454.9 376.5L448.1 379.2L452.8 388.2L443.2 394.7L442.9 391.9L444.3 389.3L443.7 386.7L442.3 385.5L442.0 387.0L439.5 387.3L438.9 385.1L437.7 383.7L435.4 384.9L433.6 384.2L432.5 384.4L432.6 382.7L432.1 380.9L430.2 380.3L429.3 379.4L426.9 375.2L427.2 372.5L429.1 370.8L439.5 374.5L440.0 375.5L442.1 376.8L447.9 372.5L448.7 371.4L447.7 368.7L444.8 367.5L444.1 365.6L442.3 366.1L441.7 364.8L444.3 363.2L444.1 362.1L445.6 360.3L449.5 358.1L451.2 355.3L450.3 354.0L449.5 353.9L449.9 351.5L452.0 350.9L453.7 349.1L456.0 349.4L456.2 343.3L458.3 342.9L460.4 343.4L460.3 341.3L460.8 340.4L459.8 338.6L461.4 336.2L459.2 334.4L458.0 334.1L457.3 330.9L456.2 328.8L454.8 327.9L454.9 326.5L455.8 325.1L452.5 322.2L453.1 319.7L453.9 318.3L445.9 312.3L446.5 311.0L445.4 309.8L445.0 307.8L442.1 311.5L430.8 303.2L424.5 300.5L423.2 297.7L422.4 297.0L420.2 296.7L416.9 293.3L416.0 295.0L417.1 296.7L417.2 298.5L407.9 292.7L407.0 291.1L400.9 285.6L400.8 284.4L396.0 282.3L393.3 284.6L390.8 284.4L389.0 283.1L388.0 284.9L385.6 287.1L374.2 280.7L370.8 279.7L369.0 279.9L368.1 281.6L367.8 295.7L366.3 295.7L361.1 293.6L361.0 292.1L358.1 290.6L354.1 289.6L342.6 280.1L338.8 280.8L332.3 278.0L329.9 277.6L324.4 277.5L321.2 278.2L318.3 277.8L306.2 280.7L306.4 275.0L303.7 268.2L303.8 266.4L306.0 262.4L306.1 256.7L306.3 255.7L307.8 255.4L311.6 255.8L316.1 253.5L322.7 243.8L331.5 234.7L338.8 230.8L351.2 229.6L353.8 226.9L354.7 215.8L358.9 213.2L371.6 212.0L381.6 234.0L379.1 236.3L378.6 237.1L379.5 239.1L389.0 248.5L387.6 254.4L387.8 254.7L391.9 254.6L393.9 253.9L396.7 250.9L401.8 248.8L414.9 247.7L415.9 248.4L417.4 250.8L417.9 253.0L413.2 260.8L409.0 263.3L407.5 264.6L406.0 266.9L409.9 267.0L415.4 269.8L417.6 270.4L423.1 275.8L426.8 275.9L428.4 281.6L430.8 283.5L432.8 283.2L434.8 287.9L439.0 289.5L442.8 289.4L445.9 285.8L442.8 282.3L451.5 279.1L460.3 281.3L465.2 278.0L467.9 276.8L477.1 275.5L477.1 277.7L479.6 281.8L478.8 284.3L474.2 290.3L473.0 291.3L468.0 294.2L468.8 299.8L466.8 300.5L466.8 302.5L467.5 305.4L471.2 306.7L474.1 309.5L477.8 312.6L480.2 314.0L481.7 313.8Z"/>
  <path class="" data-province="青海" d="M442.0 387.0L441.8 388.1L440.7 389.0L440.3 390.9L441.2 391.9L440.0 394.6L439.2 394.5L436.9 392.5L432.6 394.6L432.1 398.2L433.6 399.7L433.7 400.6L432.7 402.9L430.8 403.1L428.6 404.0L427.5 403.3L425.1 403.0L424.0 407.4L422.9 408.3L422.0 406.7L423.3 405.2L422.4 403.2L420.9 401.6L418.6 402.2L418.1 403.9L416.5 403.2L417.2 401.1L416.8 399.9L412.6 396.5L410.1 401.8L407.2 400.1L403.8 399.1L402.8 397.0L400.9 395.6L397.1 393.7L393.9 384.2L391.0 381.1L384.5 378.8L381.2 380.6L380.1 380.6L379.3 378.0L378.5 378.1L378.0 379.4L374.5 380.5L374.6 385.4L376.0 386.4L376.9 388.4L379.8 389.3L378.1 390.8L376.3 393.3L376.0 394.7L376.4 396.5L374.8 397.8L374.2 398.9L374.5 401.2L375.3 402.7L379.6 405.6L378.3 407.5L377.3 406.7L374.2 406.4L373.7 407.9L374.7 408.6L374.2 411.0L373.1 410.9L372.5 412.0L372.6 414.5L364.5 416.6L365.5 421.3L364.6 421.9L363.5 421.2L360.7 420.6L357.6 417.6L356.1 418.3L355.5 420.1L356.6 420.9L356.9 423.9L355.8 424.4L354.7 421.6L345.6 420.8L344.2 419.5L343.4 416.8L344.3 415.7L344.5 414.1L343.8 412.7L341.9 411.3L338.9 411.0L337.2 409.5L337.0 407.8L331.5 403.2L324.3 406.9L320.7 406.5L318.5 405.1L316.4 405.2L315.0 406.1L310.6 403.4L307.7 403.3L307.3 402.0L295.2 401.8L294.9 399.5L293.2 399.1L291.5 399.8L284.8 395.5L282.3 391.9L282.0 390.6L279.4 390.6L278.4 392.2L275.7 392.5L273.5 394.3L266.1 391.5L263.3 386.1L260.7 385.1L255.5 376.3L256.0 375.4L257.8 374.3L258.7 371.1L256.9 364.1L258.4 362.1L257.9 360.6L254.4 360.0L254.5 357.8L252.7 355.2L253.2 352.7L257.0 350.8L256.4 349.6L257.9 343.5L254.7 343.3L253.2 342.5L252.4 340.5L253.7 339.3L260.7 338.3L261.3 335.5L263.7 337.8L265.6 338.1L270.7 338.2L274.6 340.2L278.2 338.9L276.6 330.8L273.5 329.7L272.0 328.2L271.7 327.1L272.1 324.7L273.5 323.1L280.9 321.1L281.3 319.1L277.6 312.1L267.8 306.7L267.9 302.5L264.1 296.3L263.4 294.3L265.9 293.7L268.5 292.4L270.9 290.7L271.2 289.7L281.0 288.4L293.7 284.7L295.7 283.8L297.0 282.6L318.3 277.8L329.9 277.6L338.8 280.8L342.6 280.1L354.1 289.6L358.1 290.6L361.0 292.1L361.1 293.6L366.3 295.7L367.8 295.7L368.1 281.6L369.0 279.9L370.8 279.7L374.2 280.7L385.6 287.1L388.0 284.9L389.0 283.1L390.8 284.4L393.3 284.6L396.0 282.3L400.8 284.4L400.9 285.6L407.0 291.1L407.9 292.7L417.2 298.5L417.1 296.7L416.0 295.0L416.9 293.3L420.2 296.7L422.4 297.0L423.2 297.7L424.5 300.5L430.8 303.2L442.1 311.5L445.0 307.8L445.4 309.8L446.5 311.0L445.9 312.3L453.9 318.3L453.1 319.7L452.5 322.2L455.8 325.1L454.9 326.5L454.8 327.9L456.2 328.8L457.3 330.9L458.0 334.1L459.2 334.4L461.4 336.2L459.8 338.6L460.8 340.4L460.3 341.3L460.4 343.4L458.3 342.9L456.2 343.3L456.0 349.4L453.7 349.1L452.0 350.9L449.9 351.5L449.5 353.9L450.3 354.0L451.2 355.3L449.5 358.1L445.6 360.3L444.1 362.1L444.3 363.2L441.7 364.8L442.3 366.1L444.1 365.6L444.8 367.5L447.7 368.7L448.7 371.4L447.9 372.5L442.1 376.8L440.0 375.5L439.5 374.5L429.1 370.8L427.2 372.5L426.9 375.2L429.3 379.4L430.2 380.3L432.1 380.9L432.6 382.7L432.5 384.4L433.6 384.2L435.4 384.9L437.7 383.7L438.9 385.1L439.5 387.3L442.0 387.0Z"/>
  <path class="" data-province="广西" d="M599.0 553.2L598.0 553.9L598.0 555.8L599.8 559.9L598.7 561.9L597.0 562.7L597.5 567.1L596.1 568.8L595.6 570.3L593.8 570.1L593.1 571.7L592.9 573.6L590.9 574.4L589.3 580.9L589.4 583.4L590.0 584.7L589.1 587.8L587.9 589.5L586.5 590.8L584.7 590.9L584.9 591.8L584.0 592.9L579.9 594.0L579.5 595.8L578.8 595.8L579.0 598.0L580.2 599.6L578.6 599.9L578.2 601.5L573.4 601.3L574.1 606.8L567.8 607.5L567.0 610.8L565.2 611.8L564.4 611.6L564.5 613.0L564.3 614.9L562.9 614.0L563.4 612.1L562.3 613.0L561.6 611.1L561.7 609.5L560.5 610.6L561.8 612.8L561.1 614.5L555.1 616.2L553.6 615.3L555.2 614.2L555.0 612.4L554.0 611.8L552.5 612.4L551.0 611.1L550.8 609.5L549.8 610.4L550.2 611.7L549.1 611.5L546.4 608.5L547.4 607.1L544.5 607.5L545.4 608.9L545.6 612.6L544.1 613.3L543.9 611.3L542.5 610.4L542.6 611.9L542.0 613.5L540.8 614.4L541.5 612.6L540.8 611.9L537.5 614.7L535.0 611.7L533.7 611.4L531.7 612.4L529.3 612.6L529.1 611.6L527.4 612.3L526.4 610.3L524.9 610.3L522.0 607.9L522.4 606.3L516.8 605.0L517.2 603.2L517.1 600.7L515.1 597.3L515.6 594.1L516.2 593.4L517.3 594.0L518.3 590.9L517.1 588.5L514.4 587.4L510.5 588.6L510.0 587.0L506.9 586.5L504.6 587.8L499.7 584.2L501.2 579.5L502.3 579.2L504.5 576.2L506.6 577.2L508.8 575.8L509.3 567.6L507.1 566.0L507.2 565.0L505.5 565.6L504.9 566.7L503.6 566.7L501.4 565.6L501.0 564.6L499.5 564.9L498.4 566.4L495.9 564.8L495.9 565.7L494.1 564.0L494.2 561.3L493.3 559.4L490.9 559.3L487.7 558.3L486.4 560.7L485.4 559.5L483.9 556.2L483.8 553.9L484.5 553.1L487.4 555.2L491.7 552.0L492.3 550.2L494.4 548.1L496.0 549.5L497.4 549.0L498.3 549.7L499.3 551.7L501.9 552.2L503.6 553.6L505.6 553.3L507.2 555.0L509.6 552.3L509.9 550.5L509.3 549.0L522.2 543.4L522.5 541.5L521.8 539.9L523.4 538.2L526.0 537.7L529.9 544.2L532.2 542.4L534.2 545.3L538.6 544.2L539.6 543.1L539.6 540.9L542.1 538.0L543.8 538.5L545.2 539.8L546.8 542.3L546.3 540.4L548.3 536.8L549.4 536.9L549.5 538.4L552.1 537.8L553.6 537.9L553.4 534.6L551.4 535.8L551.0 534.8L552.2 533.6L554.3 533.0L554.9 534.1L555.8 533.0L556.5 534.3L557.6 534.2L560.0 528.6L562.2 528.3L563.3 529.6L563.4 531.4L564.8 531.1L565.0 528.9L565.8 528.5L567.2 525.6L569.3 526.5L568.8 528.6L570.4 528.3L572.1 529.7L573.6 527.2L575.8 526.1L576.6 525.1L576.8 522.9L581.8 524.1L582.9 521.9L585.6 523.5L587.5 524.0L587.2 528.1L586.7 530.1L588.0 531.9L588.6 531.0L590.5 530.7L588.4 536.1L588.5 538.7L583.6 545.4L583.0 547.7L584.2 549.8L587.9 545.4L588.6 546.1L590.2 546.2L591.0 552.1L590.3 554.2L591.6 555.0L593.1 553.8L593.9 552.4L599.0 553.2Z"/>
  <path class="" data-province="贵州" d="M556.9 481.9L557.0 485.4L558.4 486.5L557.7 493.4L559.8 498.1L559.4 499.8L549.8 508.8L551.0 510.1L552.2 509.9L553.1 508.6L554.4 507.9L555.4 508.9L556.5 507.5L559.7 507.9L560.6 509.2L560.7 510.9L559.8 512.3L560.9 513.1L559.1 515.0L557.5 515.6L558.8 517.1L559.1 519.2L557.8 521.3L557.5 523.4L559.1 524.2L560.0 528.6L557.6 534.2L556.5 534.3L555.8 533.0L554.9 534.1L554.3 533.0L552.2 533.6L551.0 534.8L551.4 535.8L553.4 534.6L553.6 537.9L552.1 537.8L549.5 538.4L549.4 536.9L548.3 536.8L546.3 540.4L546.8 542.3L545.2 539.8L543.8 538.5L542.1 538.0L539.6 540.9L539.6 543.1L535.5 545.5L534.2 545.3L533.7 543.9L532.6 544.3L532.2 542.4L529.9 544.2L526.0 537.7L523.4 538.2L521.8 539.9L522.5 541.5L522.2 543.4L509.3 549.0L509.9 550.5L509.6 552.3L507.2 555.0L505.6 553.3L503.6 553.6L501.9 552.2L499.3 551.7L498.3 549.7L497.4 549.0L496.0 549.5L494.4 548.1L492.3 550.2L491.7 552.0L487.4 555.2L484.5 553.1L488.1 543.3L486.4 542.6L484.9 541.0L484.4 538.6L482.8 538.6L480.8 533.8L481.8 534.0L484.5 524.2L486.5 522.1L482.8 515.8L481.7 517.1L479.5 517.5L478.5 517.0L476.5 519.6L474.9 519.5L472.9 518.4L472.0 513.1L472.8 512.7L472.8 511.2L470.0 509.0L474.8 503.0L475.9 502.9L478.8 505.3L481.5 502.1L483.0 503.8L489.5 504.6L492.8 502.6L494.6 502.9L496.1 496.8L498.9 495.6L501.2 497.5L510.7 495.8L512.2 494.6L511.5 491.5L508.6 488.2L507.0 488.9L505.2 488.6L504.8 486.6L501.5 485.1L501.6 483.2L501.1 482.4L502.0 480.5L505.2 480.0L506.6 477.3L512.1 482.4L512.8 480.7L514.4 481.3L514.9 478.8L514.0 476.0L515.5 477.0L516.5 479.5L515.4 481.4L517.5 482.4L518.4 482.0L519.9 476.9L521.6 476.6L522.7 474.7L524.7 474.8L526.1 476.2L526.8 476.2L528.9 474.9L529.9 472.7L528.8 471.1L528.9 469.1L529.9 468.0L530.8 469.1L534.3 470.0L534.4 471.8L535.7 472.9L538.4 471.4L542.0 471.1L542.8 474.1L543.2 476.8L542.7 478.5L545.9 479.3L546.5 480.1L546.6 484.4L548.1 485.1L547.4 482.8L548.2 482.3L549.6 483.5L548.8 486.9L552.1 487.7L554.4 487.6L555.3 483.3L556.9 481.9Z"/>
  <path class="" data-province="重庆" d="M562.1 420.9L564.2 424.2L567.2 425.0L570.0 427.3L570.6 428.5L571.0 431.2L570.0 432.5L570.4 434.8L570.3 436.6L569.3 438.0L568.3 438.1L566.3 436.9L559.0 442.7L552.4 442.2L550.9 443.3L548.9 443.9L547.9 442.9L546.4 444.3L544.3 444.5L543.4 446.1L545.8 447.7L545.9 455.9L543.8 456.9L544.5 458.7L545.6 458.9L547.0 456.4L547.7 457.2L548.3 459.4L551.0 460.5L551.0 463.1L551.7 466.0L557.2 471.7L557.3 477.7L556.2 479.6L557.3 480.5L556.9 481.9L555.3 483.3L554.4 487.6L552.1 487.7L548.8 486.9L549.6 483.5L548.2 482.3L547.4 482.8L548.1 485.1L546.6 484.4L546.5 480.1L545.9 479.3L542.7 478.5L543.2 476.8L542.8 474.1L542.0 471.1L538.4 471.4L535.7 472.9L534.4 471.8L534.3 470.0L530.8 469.1L529.9 468.0L528.9 469.1L528.8 471.1L529.9 472.7L528.9 474.9L526.8 476.2L526.1 476.2L524.7 474.8L522.7 474.7L521.6 476.6L519.9 476.9L519.9 479.1L517.5 482.4L515.4 481.4L516.5 479.5L515.5 477.0L514.0 476.0L514.9 478.8L514.4 481.3L512.8 480.7L511.5 478.8L510.8 476.5L510.9 475.1L507.0 473.1L505.0 474.1L503.7 473.8L502.4 467.1L497.9 466.1L496.0 461.5L502.4 456.2L502.9 453.1L500.1 450.9L501.5 449.7L501.6 448.4L502.8 448.3L503.7 445.7L506.9 446.4L508.8 447.2L510.6 449.5L515.2 447.3L516.4 448.6L517.9 452.6L518.7 453.0L522.7 452.6L529.6 442.2L529.3 439.3L530.0 438.2L532.7 437.6L533.3 436.9L534.7 438.6L536.5 437.2L538.1 430.6L545.5 421.4L545.3 419.8L542.0 417.4L541.7 416.4L542.9 414.5L544.0 414.0L543.1 412.7L545.6 412.2L549.7 415.0L553.8 417.0L558.1 421.5L562.1 420.9Z"/>
  <path class="" data-province="北京" d="M681.3 259.8L681.6 260.9L680.6 262.6L672.1 264.4L672.5 266.7L674.7 268.4L673.9 270.6L672.7 272.2L669.8 272.0L667.1 273.7L667.5 275.0L666.4 275.2L664.3 274.0L663.7 272.8L660.5 273.0L659.6 272.7L656.7 273.9L654.6 272.1L652.2 271.4L652.0 268.8L653.8 268.3L651.7 265.4L654.0 262.8L658.1 261.6L659.6 259.1L656.3 254.5L658.6 253.1L660.4 253.4L662.5 252.2L663.7 250.5L665.0 250.7L667.5 249.7L665.9 247.6L670.5 245.2L670.9 246.9L674.5 250.5L676.7 251.9L683.3 252.1L678.7 255.3L681.3 259.8Z"/>
  <path class="" data-province="福建" d="M682.5 571.8L683.9 572.0L682.5 575.0L680.8 575.2L681.6 571.5L682.5 571.8ZM693.3 557.0L694.1 557.6L693.6 558.9L692.3 558.3L692.6 556.6L693.3 557.0ZM711.2 540.2L710.9 539.1L711.7 537.4L711.7 539.9L711.2 540.2ZM718.5 536.5L720.0 537.7L718.8 538.5L718.2 540.6L717.2 539.9L718.5 538.4L717.6 538.1L717.3 536.6L718.6 535.8L718.5 536.5ZM712.6 529.9L710.5 529.3L709.9 528.2L712.7 529.4L712.6 529.9ZM716.4 528.0L715.1 527.5L715.8 526.9L716.4 528.0ZM728.4 506.5L726.6 505.8L726.7 504.4L725.9 505.6L727.3 505.8L728.4 507.5L727.4 508.6L725.7 507.9L725.6 511.8L723.9 511.8L722.3 513.1L723.9 514.2L723.4 515.0L723.8 517.1L719.4 519.3L723.1 514.5L720.8 514.3L720.9 515.0L719.7 517.0L718.7 516.3L718.8 513.4L718.2 515.4L717.5 514.0L717.3 515.9L715.9 514.2L715.0 515.2L715.8 518.5L716.9 517.6L718.6 518.4L718.3 518.9L719.1 520.7L718.3 521.6L716.6 519.9L715.4 521.0L716.6 521.2L717.0 523.3L718.0 523.1L719.2 521.2L720.1 522.5L721.2 522.4L720.0 523.4L716.9 524.0L713.6 529.6L709.9 527.4L710.4 529.9L711.9 530.4L715.3 528.4L717.3 529.6L715.5 532.7L716.1 533.8L715.5 535.4L713.5 535.2L716.5 540.8L715.8 541.2L715.4 539.5L714.9 541.1L714.0 541.2L714.3 539.2L712.2 538.4L712.0 536.9L710.8 537.4L710.2 539.1L708.1 540.3L711.8 543.6L711.0 544.6L708.1 544.5L708.6 545.9L707.1 545.2L707.4 544.0L706.1 543.9L706.3 542.9L704.5 543.9L706.0 544.6L705.8 546.1L704.4 546.4L706.5 549.1L702.2 551.2L702.4 550.4L701.5 549.1L700.7 551.2L701.0 552.5L701.9 552.0L702.9 552.9L701.7 554.5L701.2 554.0L701.1 556.4L699.7 557.3L700.0 556.4L697.8 555.2L694.6 556.9L694.0 556.2L693.7 554.0L692.9 556.1L690.8 556.7L692.1 557.4L691.1 558.7L689.2 557.9L688.0 558.4L689.8 559.8L691.9 559.6L691.6 561.0L692.6 560.7L693.1 562.2L692.3 562.3L690.7 564.1L690.3 563.1L689.6 566.6L686.7 566.5L684.9 572.1L684.8 569.2L682.2 568.1L683.5 569.5L683.0 571.1L680.3 571.1L679.5 574.6L678.5 574.4L676.4 572.1L674.7 565.7L675.3 563.6L674.0 559.7L672.0 556.7L672.3 554.5L670.6 554.5L668.6 555.5L666.2 551.2L664.7 551.9L658.8 549.8L658.6 546.9L658.1 544.5L659.1 543.7L660.2 541.6L660.9 536.2L663.0 533.5L662.6 531.8L663.2 531.1L665.4 530.2L666.6 528.2L666.9 526.4L666.6 523.9L668.5 521.5L669.6 521.8L670.0 520.0L668.8 518.7L668.2 516.3L668.9 512.9L670.8 510.7L674.7 510.0L676.5 508.3L678.2 505.2L677.6 499.7L679.3 496.7L680.3 495.8L680.2 494.2L681.2 494.0L683.7 492.1L685.1 494.0L687.3 495.0L688.5 492.7L696.8 489.6L696.6 487.4L698.1 486.0L698.9 486.5L702.5 485.3L703.4 487.0L703.0 487.9L702.7 492.0L703.8 493.2L704.9 496.8L705.3 501.4L710.6 502.4L712.6 500.7L713.7 500.5L715.0 497.7L716.0 497.8L718.4 504.4L725.7 502.7L727.2 503.2L728.2 504.8L728.4 506.5Z"/>
  <path class="" data-province="安徽" d="M716.2 432.3L715.4 437.7L714.2 439.2L713.4 441.6L712.5 440.7L710.7 442.2L710.3 443.3L711.5 443.9L712.6 446.7L711.6 446.7L710.4 447.9L704.7 447.6L704.9 454.0L702.3 458.8L696.9 464.0L693.9 464.9L693.0 464.2L692.9 462.8L691.0 461.8L689.6 462.2L686.7 462.1L685.8 461.1L683.9 460.8L682.0 458.0L682.1 456.9L679.4 456.6L678.8 455.1L677.8 455.4L676.9 456.7L677.5 457.7L677.1 459.2L675.1 460.2L674.1 462.0L671.6 462.2L670.4 460.7L670.8 459.2L672.7 458.3L674.1 455.2L672.6 453.3L670.5 452.7L668.0 455.9L662.7 457.7L661.1 449.5L659.1 447.7L658.6 446.3L659.7 445.3L656.9 440.7L661.0 434.2L655.4 430.7L654.3 431.7L653.6 431.3L651.8 428.6L651.0 428.2L650.9 426.9L651.1 425.1L653.3 420.9L655.3 420.0L659.0 419.8L658.5 405.8L653.8 408.3L652.1 406.3L650.8 405.3L648.2 404.7L648.0 399.7L644.0 397.8L643.3 397.1L643.4 395.4L644.6 394.6L647.3 395.4L649.5 394.2L650.4 387.5L651.9 386.6L654.9 385.8L653.9 382.8L654.8 381.1L653.7 380.0L654.1 378.5L655.2 377.2L659.9 378.1L660.0 379.9L661.7 382.3L663.3 383.4L666.9 382.0L667.3 381.0L670.3 379.0L668.8 375.8L669.3 374.5L669.0 372.7L666.6 372.9L662.9 369.6L662.8 367.4L666.9 365.9L672.8 370.5L675.1 370.7L676.4 375.1L685.4 377.9L686.4 380.2L687.3 380.3L687.0 383.2L690.1 383.1L693.1 382.5L693.9 383.9L693.1 385.4L692.9 387.9L692.2 387.7L690.2 392.5L691.1 393.8L692.4 394.2L694.5 393.6L695.8 401.2L697.3 402.1L702.3 402.1L704.4 397.5L706.5 397.7L706.7 398.7L709.0 400.4L709.6 404.7L707.8 407.5L704.9 404.6L702.9 404.3L699.7 405.0L701.7 409.5L701.2 411.4L699.1 412.1L698.9 413.3L697.1 414.9L697.4 415.8L696.6 416.9L698.6 418.6L698.5 419.9L701.7 421.5L701.5 422.4L704.4 422.9L704.7 424.9L703.9 427.3L702.7 428.0L702.8 429.5L703.7 430.5L711.9 429.4L712.1 431.2L716.2 432.3Z"/>
  <path class="" data-province="广东" d="M577.7 625.8L576.7 625.4L577.4 624.6L577.7 625.8ZM574.3 622.0L574.6 622.9L576.4 622.3L576.3 624.4L575.1 623.7L572.4 624.4L572.7 622.4L574.3 622.0ZM575.7 620.3L577.8 620.1L577.0 621.7L574.7 620.5L575.7 620.3ZM598.1 611.5L598.8 612.3L596.3 613.2L596.5 611.7L598.1 611.5ZM608.6 611.9L607.0 612.2L607.6 611.0L609.0 610.4L608.6 611.9ZM612.3 609.3L611.3 610.5L611.3 612.9L610.0 611.0L611.0 609.2L612.3 609.3ZM618.2 604.2L617.2 605.5L617.4 604.3L618.2 604.2ZM620.4 603.6L620.6 604.8L619.2 604.5L620.4 603.6ZM620.0 601.9L618.8 603.6L618.6 602.7L620.0 601.9ZM624.3 593.6L623.7 593.4L621.7 591.1L623.0 591.0L624.2 592.5L624.3 593.6ZM621.9 588.1L623.2 589.2L623.7 590.5L620.6 588.2L621.9 588.1ZM677.7 577.2L677.8 578.5L675.0 577.9L676.8 577.0L677.7 577.2ZM628.6 539.7L629.9 540.0L630.2 543.2L631.5 542.4L634.0 542.7L638.5 540.5L638.7 541.4L640.6 542.7L640.3 545.1L641.0 545.8L638.2 547.2L636.1 548.6L635.7 550.4L634.4 552.8L632.4 554.5L633.6 554.9L636.3 557.7L651.6 552.3L656.0 556.8L657.4 556.5L656.6 553.0L656.8 551.4L658.8 549.8L664.7 551.9L666.2 551.2L668.6 555.5L670.6 554.5L672.3 554.5L672.0 556.7L674.0 559.7L675.3 563.6L674.7 565.7L676.4 572.1L678.5 574.4L677.1 575.6L676.9 573.7L675.1 574.5L674.4 573.7L673.6 576.1L673.8 577.5L672.4 579.4L670.6 579.3L668.5 578.3L669.5 580.1L672.0 579.9L672.5 582.0L671.5 581.4L670.4 582.9L669.9 581.5L668.1 587.2L666.3 587.4L665.1 586.7L661.9 589.3L662.4 588.0L661.1 587.3L661.7 588.5L657.8 590.8L657.6 589.7L655.6 588.1L653.3 588.6L654.2 588.9L653.2 590.9L654.0 592.3L652.3 591.7L650.9 591.8L650.3 591.1L651.6 590.5L648.7 590.0L649.8 589.1L650.0 587.8L648.9 589.1L646.1 589.9L643.3 594.4L643.1 593.6L641.3 593.8L641.3 590.8L641.8 589.5L638.4 591.1L637.4 592.6L638.7 592.5L638.1 594.2L639.2 595.2L637.7 596.4L637.1 594.6L635.8 593.3L629.2 594.8L628.1 596.4L626.3 592.2L625.8 590.5L624.4 590.6L623.8 587.8L624.1 585.4L622.6 586.1L623.3 584.2L625.5 583.4L625.2 583.0L622.0 584.8L621.7 587.6L619.8 588.1L623.6 594.1L622.8 596.7L623.8 597.9L623.4 600.4L621.8 602.0L616.9 594.1L616.9 595.9L617.9 596.9L620.6 601.5L619.1 601.5L617.9 604.1L616.8 604.5L615.7 601.0L613.7 607.3L612.5 607.3L611.7 605.6L607.5 609.2L604.5 605.3L605.3 608.5L604.6 610.0L602.8 610.5L601.8 609.6L601.7 608.4L599.2 608.6L599.6 607.1L598.6 608.3L597.4 606.3L597.6 608.4L599.0 609.2L597.3 610.9L596.1 609.8L594.4 609.4L595.7 611.1L593.4 613.8L580.5 616.2L579.1 617.2L578.1 619.5L574.8 620.2L574.8 616.7L574.4 620.8L572.5 622.1L571.5 622.3L570.7 624.1L570.7 626.7L574.0 626.7L574.4 629.2L573.7 628.6L573.6 627.2L572.9 630.3L575.7 632.0L576.5 633.7L574.5 637.1L572.6 638.0L568.7 637.1L567.0 638.0L567.3 636.7L566.2 635.1L566.7 634.6L567.9 636.0L568.6 634.8L567.3 633.2L565.8 633.2L565.3 631.1L564.4 630.8L565.0 629.7L564.8 627.2L563.6 626.9L563.1 625.2L564.7 617.1L567.2 617.0L567.5 614.5L565.3 614.9L564.4 611.6L565.2 611.8L567.0 610.8L567.8 607.5L574.1 606.8L573.4 601.3L578.2 601.5L578.6 599.9L580.2 599.6L579.0 598.0L578.8 595.8L579.5 595.8L579.9 594.0L584.0 592.9L584.9 591.8L584.7 590.9L586.5 590.8L587.9 589.5L589.1 587.8L590.0 584.7L589.7 577.9L590.9 575.5L590.9 574.4L592.9 573.6L593.1 571.7L593.8 570.1L595.6 570.3L596.1 568.8L597.5 567.1L597.0 562.7L598.7 561.9L599.8 559.9L598.0 553.9L601.3 552.1L601.8 545.3L603.1 544.9L606.1 545.1L609.2 546.1L610.0 548.2L611.4 549.3L614.2 548.9L614.6 543.6L612.7 543.7L612.1 542.0L618.7 538.4L623.3 542.1L625.4 541.4L627.1 541.5L628.6 539.7Z"/>
  <path class="" data-province="西藏" d="M256.2 338.7L253.7 339.3L252.4 340.5L253.2 342.5L254.7 343.3L257.9 343.5L256.4 349.6L257.0 350.8L253.2 352.7L252.7 355.2L254.5 357.8L254.4 360.0L257.9 360.6L258.4 362.1L256.9 364.1L258.7 371.1L257.8 374.3L256.0 375.4L255.5 376.3L260.7 385.1L263.3 386.1L266.1 391.5L273.5 394.3L275.7 392.5L278.4 392.2L279.4 390.6L282.0 390.6L282.3 391.9L284.8 395.5L291.5 399.8L293.2 399.1L294.9 399.5L295.2 401.8L307.3 402.0L307.7 403.3L310.6 403.4L315.0 406.1L316.4 405.2L318.5 405.1L320.7 406.5L324.3 406.9L331.5 403.2L337.0 407.8L337.2 409.5L338.9 411.0L341.9 411.3L343.8 412.7L344.5 414.1L344.3 415.7L343.4 416.8L344.2 419.5L345.6 420.8L354.7 421.6L355.8 424.4L356.9 423.9L356.6 420.9L355.5 420.1L356.1 418.3L357.6 417.6L360.7 420.6L363.5 421.2L364.6 421.9L365.5 421.3L364.5 416.6L372.6 414.5L372.5 412.0L373.1 410.9L374.2 411.0L374.7 408.6L373.7 407.9L374.2 406.4L377.3 406.7L378.3 407.5L379.6 405.6L387.2 409.2L387.4 411.1L388.8 413.5L391.0 416.2L390.5 419.4L397.6 428.1L395.8 430.4L394.5 428.8L393.8 428.9L393.3 431.6L398.7 439.6L397.9 441.1L400.2 455.3L399.6 456.5L399.2 460.3L401.0 468.4L399.2 468.8L398.5 475.6L397.1 476.0L396.1 472.6L394.2 473.1L393.8 474.9L394.4 477.2L393.1 478.8L393.8 483.5L392.8 485.5L391.5 486.8L390.3 486.8L388.6 484.8L387.5 487.7L385.8 488.8L381.8 484.5L380.9 485.0L380.0 484.3L378.9 481.8L378.1 482.4L377.0 481.3L373.9 487.6L373.5 490.2L374.9 491.3L374.3 493.8L373.2 493.3L367.9 497.8L348.6 488.5L338.8 495.7L329.6 499.8L327.0 499.9L317.5 511.1L307.4 511.8L304.6 510.1L302.1 510.0L301.0 511.2L294.9 512.5L293.6 512.3L291.9 508.6L292.5 505.6L293.7 505.0L292.2 501.6L286.5 501.2L285.7 500.2L285.1 499.5L286.0 492.4L280.9 489.8L279.2 490.4L277.9 492.0L271.6 489.9L268.4 490.1L270.1 487.1L266.6 485.9L265.6 486.6L264.6 484.7L263.8 485.4L262.2 485.0L254.4 489.0L249.2 495.1L248.9 496.3L247.7 498.8L245.3 500.6L245.0 502.2L245.7 504.2L244.1 504.4L242.3 502.7L241.8 500.1L242.8 498.0L243.5 494.5L242.9 492.9L243.0 491.6L241.7 490.5L239.8 489.5L238.1 491.0L236.2 491.8L232.2 492.5L232.2 494.1L227.7 493.3L227.0 494.5L225.5 495.0L220.7 495.2L221.0 494.4L219.5 495.0L217.4 494.8L209.8 489.5L208.0 489.7L207.6 492.0L206.4 493.2L202.8 491.5L202.1 488.5L200.7 490.1L201.4 492.9L200.5 493.6L199.4 493.7L195.0 485.2L193.7 486.8L190.9 485.9L189.6 486.6L188.3 486.5L185.6 485.2L185.5 483.3L186.9 480.5L185.2 479.4L183.1 481.4L181.2 481.2L178.3 478.3L175.9 477.6L174.4 475.2L172.4 474.2L172.5 472.1L170.5 467.9L167.2 467.3L164.7 468.2L163.7 469.6L161.5 469.0L156.1 460.8L154.8 461.6L153.2 460.0L152.1 459.6L151.1 460.1L147.7 456.7L146.6 455.1L144.3 453.6L140.5 452.4L139.6 447.5L132.0 445.9L130.3 447.4L128.8 446.6L128.7 449.1L127.0 452.3L125.9 453.6L124.2 453.2L122.8 450.0L122.5 448.9L116.4 444.9L110.3 443.1L110.1 441.2L111.1 440.0L110.1 438.9L108.5 438.9L105.0 435.5L103.5 435.2L101.0 436.0L99.5 434.5L98.3 434.3L93.1 426.6L92.4 426.8L91.8 428.7L90.9 428.1L90.3 429.1L88.8 429.3L88.1 428.5L88.5 426.4L87.5 425.2L89.4 423.3L88.0 422.2L87.1 420.2L88.2 416.6L83.8 411.5L83.7 408.0L82.7 405.9L87.8 403.8L88.6 407.2L90.8 409.2L93.3 408.9L93.9 407.0L95.5 406.3L96.4 406.6L99.5 403.7L99.8 401.8L98.5 399.1L97.3 397.8L98.0 393.9L94.5 392.7L91.7 391.1L89.5 388.3L88.0 376.6L90.7 375.1L91.8 374.0L91.5 371.7L95.3 369.8L104.4 369.9L106.8 365.1L105.7 360.7L107.5 359.8L108.2 358.8L107.7 357.6L110.2 354.4L111.6 350.9L111.5 349.5L112.4 349.6L115.0 351.5L122.6 353.6L123.4 353.3L123.8 351.8L126.1 353.2L133.8 354.5L138.3 353.1L139.6 350.7L144.8 346.1L149.2 346.9L150.3 346.2L152.6 346.4L153.3 347.8L153.2 349.9L155.1 351.4L171.0 352.0L186.6 345.0L188.3 345.4L190.3 344.9L192.4 345.6L193.0 346.8L195.3 344.8L198.6 344.8L199.6 344.3L201.0 342.6L202.9 338.1L205.8 337.1L206.7 336.1L218.0 334.5L220.3 333.2L223.8 334.0L234.7 331.8L243.1 333.2L245.1 334.8L249.2 335.3L256.2 338.7Z"/>
  <path class="" data-province="新疆" d="M276.7 138.2L276.4 140.0L277.2 140.5L275.5 144.7L274.9 145.5L276.5 150.8L272.0 155.9L271.1 160.8L274.5 166.6L276.1 166.1L278.6 166.4L286.7 169.0L292.0 168.7L294.8 169.9L299.1 170.2L303.4 169.4L305.1 169.4L315.3 171.1L318.2 172.5L321.4 176.3L325.6 176.7L327.8 179.4L333.3 182.5L338.5 184.2L343.7 183.6L342.9 186.2L343.0 188.9L345.8 189.4L351.1 202.6L351.9 203.9L357.8 209.2L358.5 210.5L358.9 213.2L354.7 215.8L353.8 226.9L351.2 229.6L338.8 230.8L331.5 234.7L322.7 243.8L316.1 253.5L311.6 255.8L307.8 255.4L306.3 255.7L306.1 256.7L306.0 262.4L303.8 266.4L303.7 268.2L306.4 275.0L306.2 280.7L297.0 282.6L295.7 283.8L293.7 284.7L281.0 288.4L271.2 289.7L270.9 290.7L268.5 292.4L265.9 293.7L263.4 294.3L264.1 296.3L267.9 302.5L267.8 306.7L277.6 312.1L281.3 319.1L280.9 321.1L273.5 323.1L272.1 324.7L271.7 327.1L272.0 328.2L273.5 329.7L276.6 330.8L278.2 338.9L274.6 340.2L270.7 338.2L265.6 338.1L263.7 337.8L261.3 335.5L260.7 338.3L259.1 339.0L256.2 338.7L249.2 335.3L245.1 334.8L243.1 333.2L234.7 331.8L223.8 334.0L220.3 333.2L218.0 334.5L206.7 336.1L205.8 337.1L202.9 338.1L201.0 342.6L199.6 344.3L198.6 344.8L195.3 344.8L193.0 346.8L192.4 345.6L190.3 344.9L188.3 345.4L186.6 345.0L171.0 352.0L155.1 351.4L153.2 349.9L153.3 347.8L152.6 346.4L150.3 346.2L149.2 346.9L144.8 346.1L139.6 350.7L138.3 353.1L133.8 354.5L126.1 353.2L123.8 351.8L123.4 353.3L122.6 353.6L115.0 351.5L112.4 349.6L111.5 349.5L111.6 350.9L110.2 354.4L107.7 357.6L108.2 358.8L107.5 359.8L105.7 360.7L106.8 365.1L104.4 369.9L95.3 369.8L91.5 371.7L86.1 367.8L82.6 367.1L81.0 365.6L76.8 354.1L77.7 350.6L76.6 349.8L75.0 351.0L73.7 349.8L71.6 350.5L67.8 350.3L59.8 348.0L54.8 345.0L54.3 342.1L52.3 343.5L48.6 343.9L47.8 341.4L44.5 338.4L46.3 335.9L45.6 334.6L45.7 331.5L44.2 328.6L42.9 327.3L40.7 326.0L39.5 325.8L38.3 326.6L37.0 326.1L36.8 323.9L36.1 323.0L33.7 322.3L32.3 321.5L29.3 322.1L28.8 323.1L27.5 321.1L25.5 320.3L23.7 321.0L21.2 319.0L21.0 318.2L26.4 315.7L27.4 317.2L29.1 317.0L33.2 313.8L29.1 310.0L29.0 309.0L30.2 306.9L28.9 305.4L29.1 302.6L27.5 300.9L28.2 293.7L27.3 292.8L20.5 289.9L17.0 289.9L15.9 291.2L15.8 292.5L14.3 292.5L12.2 291.1L11.3 288.8L11.3 287.3L10.5 286.3L12.5 283.7L10.7 282.1L9.3 279.1L9.9 277.2L9.7 275.1L12.6 274.7L14.2 272.4L12.6 268.3L15.4 263.5L17.9 262.6L21.0 262.7L26.2 258.4L28.6 258.5L27.5 256.7L28.1 255.1L33.7 256.3L38.1 253.0L39.7 253.1L41.2 259.1L48.4 257.7L49.8 256.3L50.9 258.2L55.7 252.8L55.8 250.9L59.3 245.5L61.6 244.9L68.7 246.1L71.7 245.7L74.8 244.5L78.0 245.0L80.4 242.5L82.3 240.3L82.3 238.6L87.1 235.6L91.8 233.6L96.8 230.9L103.6 229.1L105.1 226.8L106.5 226.4L110.3 226.5L111.5 225.3L110.8 223.3L111.6 222.4L109.7 215.1L111.0 211.9L116.0 209.9L113.8 208.8L113.2 207.4L116.4 205.7L119.6 205.5L118.8 202.5L117.4 201.8L118.5 199.3L114.8 190.7L112.8 187.1L113.0 176.7L115.1 175.8L114.8 175.1L110.9 173.6L107.4 174.0L105.5 173.0L105.3 172.0L108.5 169.8L118.2 167.4L120.6 167.7L133.1 163.6L134.2 163.7L135.3 166.6L137.5 167.4L141.2 165.9L142.8 165.8L145.5 167.9L147.2 166.8L148.0 163.7L147.7 161.9L143.8 161.0L142.8 159.7L153.4 133.4L153.8 128.7L155.9 128.3L167.5 132.8L179.2 132.6L180.2 133.3L180.7 135.8L187.5 131.7L192.0 131.3L192.9 128.9L194.5 128.4L194.6 125.1L193.2 122.4L193.5 120.5L192.2 114.9L193.3 110.8L195.4 106.6L208.4 103.5L209.2 102.0L211.1 100.1L211.0 98.6L211.8 97.6L210.7 96.2L210.9 94.7L213.3 92.5L214.7 92.8L216.8 92.1L220.0 92.9L221.2 93.2L223.1 92.3L227.6 91.4L227.7 94.0L228.4 95.1L226.7 96.0L226.4 97.0L231.4 100.5L229.5 102.1L230.7 103.2L238.1 106.0L239.1 106.9L239.3 109.4L242.8 111.4L244.7 111.6L246.5 113.6L254.1 112.8L255.8 115.3L257.3 116.7L261.8 115.7L262.4 118.0L264.3 119.2L266.4 119.9L268.3 126.5L272.1 132.1L273.8 132.7L275.4 134.7L275.3 135.9L276.7 138.2Z"/>
  <path class="" data-province="海南" d="M583.8 648.7L578.6 654.4L574.9 665.0L575.9 665.6L575.9 664.0L576.5 665.7L569.9 670.4L569.1 673.2L567.8 673.2L568.2 672.2L565.8 673.3L564.4 673.1L564.1 674.8L561.6 677.3L561.6 675.7L555.5 675.1L554.4 673.6L548.3 671.0L547.2 656.4L553.2 650.3L555.4 649.4L556.1 648.1L557.7 648.2L557.2 646.6L555.6 647.9L555.5 646.4L557.6 644.2L560.1 645.9L561.1 645.3L561.1 643.7L562.1 642.9L564.0 642.5L565.8 644.0L567.4 642.9L568.2 644.5L570.7 641.5L572.3 642.1L573.3 641.6L574.3 642.7L574.2 641.2L577.0 643.0L577.4 640.7L578.7 639.6L579.2 641.3L580.4 642.5L582.7 642.8L583.3 645.3L583.8 648.7Z"/>
  <path class="" data-province="宁夏" d="M532.3 305.2L527.1 310.2L525.9 315.7L526.6 316.4L527.3 318.4L526.6 320.1L516.8 317.9L516.6 321.4L515.7 322.7L516.8 324.5L516.1 326.6L514.6 326.9L514.3 330.2L513.5 330.8L514.5 332.0L514.5 335.2L519.4 336.3L521.4 338.8L520.9 341.2L519.8 342.5L520.9 344.3L520.0 345.3L518.1 346.4L516.0 345.4L514.1 345.4L513.5 346.0L514.6 348.7L513.2 348.9L514.5 350.2L514.0 352.9L512.7 354.3L511.7 354.0L510.1 351.7L508.6 351.2L505.5 351.5L505.5 350.7L507.8 350.4L505.9 349.3L504.3 349.8L502.7 347.8L502.1 346.3L502.7 345.8L500.2 345.9L498.2 344.9L496.4 341.5L496.9 339.2L498.2 338.3L498.4 335.5L494.9 327.2L496.5 325.5L494.3 321.9L490.3 319.5L489.3 317.2L485.7 316.7L487.3 315.0L486.8 313.6L483.3 313.0L481.7 313.8L482.7 311.9L490.7 311.1L492.8 308.9L497.0 307.1L499.7 307.7L501.6 307.4L503.6 306.2L504.2 302.4L503.1 299.9L504.2 298.2L505.3 288.5L507.8 284.0L508.6 281.3L510.6 281.2L511.2 280.6L511.5 278.1L514.5 278.2L516.3 276.8L519.0 276.7L519.3 279.8L520.9 282.3L521.9 282.9L516.8 293.8L514.1 297.0L519.6 299.6L523.2 300.3L524.7 299.8L527.2 301.2L528.3 302.7L528.5 303.9L532.3 305.2Z"/>
  <path class="" data-province="陕西" d="M585.4 276.3L587.1 277.7L585.5 282.3L583.6 283.5L582.1 292.2L576.2 298.6L576.2 303.3L579.7 306.9L579.2 307.9L580.3 308.5L580.4 310.8L579.8 312.3L578.0 313.9L578.9 314.6L578.5 316.0L574.0 323.4L575.9 331.1L575.2 337.6L577.8 347.9L575.9 351.5L573.5 355.4L572.3 360.2L572.0 362.9L573.4 369.0L575.7 371.9L575.0 373.1L577.8 375.0L577.4 380.4L583.2 385.7L583.3 391.9L579.9 395.1L577.6 394.1L576.7 392.3L575.0 393.7L571.9 394.0L566.4 392.4L563.1 392.0L560.9 392.5L559.9 394.2L564.6 395.5L565.0 396.1L564.3 398.3L569.8 400.0L570.7 402.1L570.9 404.1L569.5 404.2L568.3 405.5L566.5 404.7L562.7 404.7L561.9 405.7L561.6 408.2L560.4 409.2L563.2 415.1L562.3 417.3L562.1 420.9L558.1 421.5L553.8 417.0L545.0 411.2L541.2 410.9L538.4 411.6L537.6 413.1L532.4 408.5L529.3 408.2L529.1 406.0L525.3 407.3L523.3 406.0L523.7 403.2L523.2 402.5L517.8 401.9L510.4 404.7L508.6 403.6L507.7 402.4L508.5 399.6L507.5 399.4L505.0 399.9L503.9 401.6L500.2 402.1L499.2 398.7L501.3 399.2L505.1 397.4L505.5 396.4L505.5 392.6L503.0 391.4L502.5 389.6L503.6 389.3L504.3 387.6L506.1 386.5L506.8 385.4L508.0 385.3L509.5 386.4L511.6 385.4L512.9 385.3L514.5 386.7L515.5 385.7L513.4 380.0L514.8 376.1L515.9 375.5L515.4 372.8L517.0 373.3L517.5 372.6L517.2 370.8L511.8 367.1L514.4 364.1L515.3 361.8L514.6 360.6L514.4 358.6L515.6 357.7L518.7 357.4L520.9 357.5L523.0 358.5L525.5 361.2L533.1 360.1L535.0 359.6L532.5 354.9L533.5 354.4L533.6 353.2L536.4 354.1L537.0 355.0L540.0 353.7L541.9 354.2L545.2 354.0L547.1 351.8L545.2 342.5L548.0 340.2L548.4 333.5L543.1 330.0L538.2 329.0L535.9 326.0L526.6 323.0L526.6 320.1L527.3 318.4L526.6 316.4L525.9 315.7L527.1 310.2L532.3 305.2L536.5 306.5L538.2 309.4L549.3 308.5L549.6 304.3L550.4 302.7L552.3 303.9L553.0 302.7L552.8 296.1L559.5 287.9L561.2 287.6L562.7 285.3L563.3 283.3L571.0 278.2L570.0 275.5L571.8 275.5L573.5 277.5L575.9 276.5L578.1 278.9L581.3 274.8L583.9 272.9L585.5 272.6L585.6 273.6L584.3 275.6L585.4 276.3Z"/>
  <path class="" data-province="山西" d="M625.5 333.5L623.8 347.0L621.0 349.9L612.9 354.6L611.4 354.6L609.5 353.3L607.1 355.0L604.2 355.0L599.9 354.7L599.6 358.3L598.4 357.4L596.4 357.6L594.2 359.0L592.2 361.8L585.8 362.6L582.3 364.2L581.9 365.5L576.5 367.0L572.2 365.5L573.5 355.4L575.9 351.5L577.8 347.9L575.2 337.6L575.9 331.1L574.0 323.4L578.5 316.0L578.9 314.6L578.0 313.9L579.8 312.3L580.4 310.8L580.3 308.5L579.2 307.9L579.7 306.9L576.2 303.3L576.2 298.6L582.1 292.2L583.6 283.5L585.5 282.3L587.1 277.7L585.4 276.3L586.7 275.5L588.9 275.2L591.2 271.2L594.0 271.5L595.4 272.3L597.8 270.5L600.6 264.6L605.2 259.2L608.2 260.2L609.8 261.4L615.7 257.0L617.9 256.8L619.5 258.6L622.4 258.2L624.8 256.6L630.4 255.4L630.9 254.3L630.2 252.7L632.1 250.6L634.1 257.5L636.4 257.8L637.6 258.5L631.1 261.2L630.7 263.0L629.7 262.2L628.8 264.4L631.1 266.2L633.3 267.0L635.6 267.3L636.0 267.9L635.9 271.1L638.1 273.5L636.2 277.9L635.8 280.4L633.1 282.3L631.1 282.2L630.0 281.3L627.5 282.2L626.1 285.3L627.1 287.1L622.6 292.3L622.4 295.3L622.7 297.7L624.8 298.5L626.5 299.6L631.3 308.2L631.2 310.0L630.6 311.9L626.0 319.2L626.3 323.4L621.4 326.3L622.6 331.1L624.1 332.0L625.5 333.5Z"/>
  <path class="" data-province="湖北" d="M650.9 426.9L653.6 431.3L654.3 431.7L655.4 430.7L661.0 434.2L656.9 440.7L659.7 445.3L658.6 446.3L659.1 447.7L661.1 449.5L662.7 457.7L660.5 458.5L658.3 458.6L656.0 456.3L652.6 456.3L651.5 459.1L649.3 461.0L646.4 460.2L647.3 461.5L646.9 463.0L646.1 462.1L644.7 462.0L642.3 465.2L640.6 465.2L637.0 466.6L634.2 465.8L633.5 467.9L630.7 468.8L628.3 471.3L626.3 470.2L625.3 471.2L623.4 467.0L625.6 464.3L624.8 462.6L624.4 459.8L622.6 459.6L623.5 456.0L620.8 458.1L616.4 463.9L615.2 464.0L614.5 462.8L613.3 463.2L613.0 461.2L614.7 458.9L614.6 458.0L613.4 459.5L612.7 457.6L609.0 460.8L605.9 460.5L603.4 462.5L602.4 460.0L601.7 460.3L595.5 455.2L590.1 455.1L587.5 453.1L582.8 452.5L579.7 451.9L579.3 453.1L576.7 452.7L575.4 453.4L576.0 456.3L577.4 458.0L573.9 460.3L571.8 458.7L569.9 457.8L565.0 458.7L563.7 460.2L563.6 461.2L562.3 460.9L559.6 462.5L556.1 470.6L551.7 466.0L551.0 463.1L551.0 460.5L548.3 459.4L547.7 457.2L547.0 456.4L545.6 458.9L544.5 458.7L543.8 456.9L545.9 455.9L546.1 453.5L545.7 451.6L545.8 447.7L543.4 446.1L544.3 444.5L552.4 442.2L559.0 442.7L562.8 440.1L564.5 437.9L566.3 436.9L568.3 438.1L569.3 438.0L570.3 436.6L570.6 428.5L570.0 427.3L567.2 425.0L564.2 424.2L562.1 420.9L562.3 417.3L563.2 415.1L560.4 409.2L562.7 404.7L566.5 404.7L568.3 405.5L569.5 404.2L570.9 404.1L570.7 402.1L569.8 400.0L564.3 398.3L565.0 396.1L564.6 395.5L559.9 394.2L560.9 392.5L563.1 392.0L566.4 392.4L571.9 394.0L575.0 393.7L576.7 392.3L577.6 394.1L579.9 395.1L583.3 391.9L591.8 404.3L593.3 404.0L594.6 404.5L595.6 406.1L603.4 409.3L607.2 408.8L610.6 409.3L615.1 407.9L622.5 410.3L623.9 408.6L625.6 408.0L626.6 416.4L628.0 418.8L629.1 419.1L629.3 420.7L631.1 420.0L632.0 418.8L633.9 419.5L635.3 420.9L637.4 420.4L638.3 420.8L638.2 424.0L639.6 424.1L641.5 425.5L645.1 425.8L646.3 425.0L647.1 423.6L649.5 427.3L650.9 426.9Z"/>
  <path class="" data-province="湖南" d="M628.3 471.3L628.3 473.4L629.9 474.2L632.0 476.6L631.5 479.9L630.6 480.8L633.2 483.8L628.5 491.1L625.7 491.9L623.0 499.2L623.6 503.4L627.5 503.9L627.1 506.1L626.0 507.7L628.1 511.4L627.2 513.7L627.7 516.9L631.1 518.4L628.6 526.1L630.7 526.0L632.3 525.1L633.0 526.1L630.4 528.0L630.0 530.6L628.3 534.0L628.5 535.7L629.5 537.2L628.6 539.7L627.1 541.5L625.4 541.4L623.3 542.1L618.7 538.4L617.7 538.7L612.1 542.0L612.7 543.7L614.6 543.6L614.2 548.9L611.4 549.3L610.0 548.2L609.2 546.1L606.1 545.1L603.1 544.9L601.8 545.3L601.3 552.1L600.1 552.1L599.0 553.2L593.9 552.4L593.1 553.8L591.6 555.0L590.3 554.2L591.0 552.1L590.2 546.2L588.6 546.1L587.9 545.4L584.2 549.8L583.0 547.7L583.6 545.4L588.5 538.7L588.4 536.1L590.5 530.7L588.6 531.0L588.0 531.9L586.7 530.1L587.2 528.1L587.5 524.0L585.6 523.5L582.9 521.9L581.8 524.1L576.8 522.9L576.6 525.1L575.8 526.1L573.6 527.2L572.1 529.7L570.4 528.3L568.8 528.6L569.3 526.5L567.2 525.6L565.8 528.5L565.0 528.9L564.8 531.1L563.4 531.4L563.3 529.6L562.2 528.3L560.0 528.6L559.1 524.2L557.5 523.4L557.8 521.3L559.1 519.2L558.8 517.1L557.5 515.6L559.1 515.0L560.9 513.1L559.8 512.3L560.7 510.9L560.6 509.2L559.7 507.9L556.5 507.5L555.4 508.9L554.4 507.9L553.1 508.6L552.2 509.9L551.0 510.1L549.8 508.8L559.4 499.8L559.8 498.1L557.7 493.4L558.4 486.5L557.0 485.4L556.9 481.9L557.3 480.5L556.2 479.6L557.3 477.7L557.2 471.7L556.1 470.6L558.0 465.9L558.8 465.1L559.6 462.5L562.3 460.9L563.6 461.2L563.7 460.2L565.0 458.7L569.9 457.8L571.8 458.7L573.9 460.3L574.9 459.0L576.4 458.9L577.4 458.0L576.0 456.3L575.4 453.4L576.7 452.7L579.3 453.1L579.7 451.9L582.8 452.5L587.5 453.1L590.1 455.1L595.5 455.2L601.7 460.3L602.4 460.0L603.4 462.5L605.9 460.5L609.0 460.8L612.7 457.6L613.4 459.5L614.6 458.0L614.7 458.9L613.0 461.2L613.3 463.2L614.5 462.8L615.2 464.0L616.4 463.9L620.8 458.1L623.5 456.0L622.6 459.6L624.4 459.8L624.8 462.6L625.6 464.3L623.4 467.0L625.3 471.2L626.3 470.2L628.3 471.3Z"/>
  <path class="" data-province="四川" d="M499.2 398.7L500.2 402.1L501.2 402.5L502.6 401.5L503.9 401.6L505.0 399.9L507.5 399.4L508.5 399.6L507.7 402.4L508.6 403.6L510.4 404.7L517.8 401.9L523.2 402.5L523.7 403.2L523.3 406.0L525.3 407.3L529.1 406.0L529.3 408.2L532.4 408.5L537.6 413.1L538.4 411.6L541.2 410.9L545.0 411.2L545.6 412.2L543.1 412.7L544.0 414.0L542.9 414.5L541.7 416.4L542.0 417.4L545.3 419.8L545.5 421.4L538.1 430.6L536.5 437.2L534.7 438.6L533.3 436.9L532.7 437.6L530.0 438.2L529.3 439.3L529.6 442.2L522.7 452.6L518.7 453.0L517.9 452.6L516.4 448.6L515.2 447.3L510.6 449.5L508.8 447.2L506.9 446.4L503.7 445.7L502.8 448.3L501.6 448.4L501.5 449.7L500.1 450.9L502.9 453.1L502.4 456.2L496.0 461.5L496.4 463.7L499.3 467.1L501.4 467.5L502.4 467.1L503.7 473.8L505.0 474.1L507.0 473.1L510.9 475.1L512.8 480.7L512.1 482.4L506.6 477.3L505.2 480.0L502.0 480.5L501.1 482.4L501.6 483.2L501.5 485.1L504.8 486.6L505.2 488.6L507.0 488.9L508.6 488.2L509.9 489.2L512.2 494.6L510.7 495.8L501.2 497.5L498.9 495.6L496.1 496.8L495.0 494.2L495.9 491.5L492.4 489.8L491.0 490.6L490.9 492.3L489.9 493.4L486.9 493.7L485.4 494.4L483.6 493.6L481.9 492.2L481.3 490.6L483.0 489.6L481.9 486.2L480.3 485.2L480.0 481.5L482.9 480.1L482.5 479.4L476.9 479.5L475.4 479.9L473.9 478.9L473.0 481.5L474.3 485.3L471.7 487.4L470.7 486.4L469.6 486.9L467.9 489.0L468.6 494.1L462.7 502.6L460.5 503.1L460.1 502.5L459.1 504.9L459.3 511.8L460.4 513.6L461.7 519.2L460.7 520.1L460.8 521.7L455.7 525.0L454.2 522.2L449.3 525.0L447.2 527.7L444.2 527.4L443.1 528.7L442.0 527.3L441.8 526.0L440.5 525.0L439.2 525.4L439.0 523.5L440.0 522.7L438.4 520.0L436.4 518.5L437.7 516.0L437.5 514.4L436.4 515.5L435.3 512.8L432.3 509.6L432.7 506.8L430.1 506.7L430.0 504.2L429.2 502.2L424.9 493.9L419.3 496.0L419.3 494.3L417.8 493.4L415.6 490.3L415.4 488.0L417.2 487.0L416.9 485.0L412.3 480.1L410.4 475.6L409.0 476.1L407.6 478.6L407.1 480.6L405.4 481.2L405.2 488.0L403.6 486.3L401.9 483.2L401.0 468.4L399.2 460.3L399.6 456.5L400.2 455.3L397.9 441.1L398.7 439.6L393.3 431.6L393.8 428.9L394.5 428.8L395.8 430.4L397.6 428.1L390.5 419.4L391.0 416.2L388.8 413.5L387.4 411.1L387.2 409.2L375.3 402.7L374.5 401.2L374.2 398.9L374.8 397.8L376.4 396.5L376.0 394.7L376.3 393.3L378.1 390.8L379.8 389.3L376.9 388.4L376.0 386.4L374.6 385.4L374.5 380.5L379.3 378.0L380.1 380.6L381.2 380.6L384.5 378.8L391.0 381.1L393.9 384.2L397.1 393.7L400.9 395.6L402.8 397.0L403.8 399.1L407.2 400.1L410.1 401.8L412.6 396.5L416.8 399.9L417.2 401.1L416.5 403.2L418.1 403.9L418.6 402.2L420.9 401.6L422.4 403.2L423.3 405.2L422.0 406.7L422.9 408.3L424.0 407.4L425.1 403.0L427.5 403.3L428.6 404.0L430.8 403.1L432.7 402.9L433.7 400.6L433.6 399.7L432.1 398.2L432.6 394.6L436.9 392.5L439.2 394.5L440.0 394.6L442.3 385.5L443.7 386.7L444.3 389.3L442.9 391.9L443.2 394.7L452.8 388.2L448.1 379.2L454.9 376.5L454.3 375.4L457.4 372.9L459.7 372.5L460.8 374.0L462.6 374.9L463.6 381.4L465.0 382.5L467.5 382.4L469.4 381.7L468.8 383.5L478.6 385.2L478.8 387.7L480.7 390.1L482.0 390.8L480.5 391.8L481.2 394.3L482.4 395.8L480.6 399.9L482.4 400.6L484.7 402.9L490.0 404.3L495.7 403.8L498.2 401.8L497.4 399.4L499.2 398.7Z"/>
  <path class="" data-province="云南" d="M496.1 496.8L494.6 502.9L492.8 502.6L489.5 504.6L488.2 504.1L485.3 504.5L483.0 503.8L481.5 502.1L478.8 505.3L475.9 502.9L474.8 503.0L470.0 509.0L472.8 511.2L472.8 512.7L472.0 513.1L472.9 518.4L474.9 519.5L476.5 519.6L478.5 517.0L479.5 517.5L481.7 517.1L482.8 515.8L486.5 522.1L484.5 524.2L481.8 534.0L480.8 533.8L482.8 538.6L484.4 538.6L484.9 541.0L486.4 542.6L488.1 543.3L486.9 548.2L483.8 553.9L483.9 556.2L485.4 559.5L486.4 560.7L487.7 558.3L490.9 559.3L493.3 559.4L494.2 561.3L494.1 564.0L498.4 566.4L499.5 564.9L501.0 564.6L501.4 565.6L503.6 566.7L507.2 565.0L509.9 569.6L508.8 575.8L506.6 577.2L504.5 576.2L502.3 579.2L501.2 579.5L501.0 580.6L499.5 582.9L496.3 579.1L494.9 581.0L489.5 582.9L488.4 584.4L488.8 587.5L487.3 589.1L485.1 589.6L484.7 589.1L481.7 591.8L480.0 591.2L479.4 589.3L477.3 590.1L475.5 595.3L474.1 594.1L470.7 589.8L468.5 593.9L465.6 590.0L463.0 594.8L460.6 596.7L459.2 595.7L458.4 593.9L454.5 591.4L452.2 590.5L448.8 597.2L447.3 597.4L445.7 596.5L443.8 596.8L443.4 597.8L442.1 596.0L441.0 595.6L438.0 600.6L442.4 612.0L441.4 613.4L441.2 618.1L442.7 619.7L441.9 620.8L441.1 621.3L439.0 619.6L437.7 619.2L434.3 620.5L433.3 619.2L433.7 617.0L432.7 616.2L431.9 609.5L428.2 611.0L423.5 615.2L419.7 613.9L417.6 615.7L416.1 613.8L417.0 611.6L414.7 610.9L414.0 610.2L413.8 604.1L412.4 603.9L412.0 604.6L401.6 602.0L404.9 595.6L404.8 593.4L404.1 590.8L405.7 588.7L405.7 587.3L407.6 587.4L406.9 584.9L405.6 584.7L404.2 583.6L402.7 584.9L397.2 582.6L397.7 578.3L396.0 576.0L397.2 574.6L395.9 571.5L394.2 571.0L394.2 567.7L397.2 565.5L397.3 564.4L395.0 564.8L393.0 565.7L386.8 564.9L382.3 566.7L378.6 569.6L376.6 568.2L379.5 564.8L378.5 558.8L376.6 559.0L376.9 553.0L378.8 551.4L380.5 551.0L379.4 549.0L379.4 546.8L380.0 546.5L381.3 543.3L382.3 544.3L384.7 542.3L385.7 540.9L385.5 538.9L386.2 536.7L388.2 537.8L389.1 537.5L391.1 533.2L391.8 532.4L393.4 533.1L394.6 531.6L392.9 529.6L392.4 527.3L393.6 526.6L393.9 527.5L394.8 526.0L393.9 524.5L395.6 517.5L394.4 499.5L390.3 497.5L389.9 499.9L388.5 500.3L385.6 492.0L385.8 488.8L387.5 487.7L388.6 484.8L390.3 486.8L391.5 486.8L392.8 485.5L393.8 483.5L393.1 478.8L394.4 477.2L393.8 474.9L394.2 473.1L396.1 472.6L397.1 476.0L398.5 475.6L399.2 468.8L401.0 468.4L401.9 483.2L403.6 486.3L405.2 488.0L405.4 481.2L407.1 480.6L407.6 478.6L409.0 476.1L410.4 475.6L412.3 480.1L416.9 485.0L417.2 487.0L415.4 488.0L415.6 490.3L417.8 493.4L419.3 494.3L419.3 496.0L424.9 493.9L429.2 502.2L430.0 504.2L430.1 506.7L432.7 506.8L432.3 509.6L435.3 512.8L436.4 515.5L437.5 514.4L437.7 516.0L436.4 518.5L438.4 520.0L440.0 522.7L439.0 523.5L439.2 525.4L440.5 525.0L441.8 526.0L442.0 527.3L443.1 528.7L444.2 527.4L447.2 527.7L449.3 525.0L454.2 522.2L455.7 525.0L460.8 521.7L460.7 520.1L461.7 519.2L460.4 513.6L459.3 511.8L459.1 504.9L460.1 502.5L460.5 503.1L462.7 502.6L468.6 494.1L467.9 489.0L469.6 486.9L470.7 486.4L471.7 487.4L474.3 485.3L473.0 481.5L473.9 478.9L475.4 479.9L476.9 479.5L482.5 479.4L482.9 480.1L480.0 481.5L480.3 485.2L481.9 486.2L483.0 489.6L481.3 490.6L481.9 492.2L483.6 493.6L485.4 494.4L486.9 493.7L489.9 493.4L490.9 492.3L491.0 490.6L492.4 489.8L495.9 491.5L495.0 494.2L496.1 496.8Z"/>
  <path class="" data-province="河北" d="M701.2 282.7L699.1 285.1L698.4 284.1L698.7 282.6L699.8 283.5L701.2 282.7ZM673.9 270.6L674.7 268.4L672.5 266.7L672.1 264.4L679.5 262.9L678.1 265.6L678.6 266.9L679.8 267.3L678.7 268.3L679.0 269.2L678.2 271.9L673.9 270.6ZM710.1 240.6L706.0 244.3L705.6 245.3L706.7 245.8L705.1 246.6L704.3 249.1L707.5 252.3L709.5 251.4L709.5 252.9L711.1 254.6L715.2 254.4L716.3 260.7L718.0 260.8L717.9 262.8L719.6 264.9L718.5 265.6L714.8 266.7L714.7 268.2L713.7 268.2L711.8 270.0L710.5 274.2L711.2 275.4L705.6 280.9L705.7 279.9L704.4 279.6L696.5 283.0L691.3 279.4L691.3 277.1L689.6 276.0L689.6 272.9L687.4 272.6L687.1 273.4L685.3 272.4L685.6 271.5L684.0 269.4L683.5 264.9L685.3 265.3L687.6 265.3L687.4 263.5L679.7 258.3L679.5 256.1L678.7 255.3L683.3 252.1L676.7 251.9L674.5 250.5L670.9 246.9L670.5 245.2L665.9 247.6L667.5 249.7L665.0 250.7L663.7 250.5L662.5 252.2L660.4 253.4L658.6 253.1L656.3 254.5L659.6 259.1L658.1 261.6L654.0 262.8L651.7 265.4L653.8 268.3L652.0 268.8L652.2 271.4L654.6 272.1L656.7 273.9L659.6 272.7L660.5 273.0L663.7 272.8L664.3 274.0L666.4 275.2L669.8 272.0L672.7 272.2L674.2 281.6L671.4 283.3L670.9 285.2L671.4 287.0L680.0 291.9L684.2 290.7L684.5 290.9L686.8 295.3L688.7 297.3L687.6 298.3L687.8 299.4L686.4 301.1L684.6 301.5L682.3 305.4L672.8 305.5L666.9 312.3L665.9 309.6L663.9 312.6L664.4 314.0L660.1 315.3L657.0 322.4L654.7 325.3L652.5 326.0L650.4 328.9L649.4 331.3L650.6 334.6L652.0 335.6L652.2 337.3L650.6 338.6L646.7 336.8L644.8 339.1L643.9 339.1L643.5 338.0L640.6 337.4L638.2 337.6L635.0 335.6L632.2 335.6L630.7 335.0L629.6 333.5L625.5 333.5L624.1 332.0L622.6 331.1L621.4 326.3L626.3 323.4L626.0 319.2L630.6 311.9L631.2 310.0L631.3 308.2L626.5 299.6L624.8 298.5L622.7 297.7L622.4 295.3L622.6 292.3L627.1 287.1L626.1 285.3L627.5 282.2L630.0 281.3L631.1 282.2L633.1 282.3L635.8 280.4L636.2 277.9L638.1 273.5L635.9 271.1L636.0 267.9L635.6 267.3L633.3 267.0L631.1 266.2L628.8 264.4L629.7 262.2L630.7 263.0L631.1 261.2L637.6 258.5L636.4 257.8L634.1 257.5L632.1 250.6L627.0 244.0L628.2 242.8L629.2 242.9L628.7 237.8L630.2 235.7L632.8 234.5L633.0 231.3L633.7 229.5L636.2 227.7L637.2 225.4L642.1 223.5L643.9 228.0L643.4 234.2L646.6 234.1L648.6 234.7L650.4 234.1L650.3 232.1L654.0 230.8L658.3 228.2L659.5 228.2L661.1 230.6L666.3 226.7L669.7 228.3L673.7 226.5L674.0 222.7L673.2 221.0L674.1 219.4L676.7 218.1L679.6 217.7L682.2 218.2L682.8 216.5L684.0 215.1L685.0 216.4L687.9 215.3L688.1 216.1L691.6 219.6L691.8 221.6L691.0 222.7L692.5 223.4L693.3 226.4L695.3 225.5L696.1 229.4L695.5 231.5L693.8 230.8L693.6 232.2L695.0 234.6L696.0 235.0L696.6 239.4L703.4 238.6L710.2 239.7L710.1 240.6Z"/>
  <path class="" data-province="河南" d="M652.2 337.3L651.6 340.4L650.2 341.6L650.2 344.6L651.5 343.6L652.0 342.1L661.7 338.3L661.0 340.9L660.0 340.5L658.4 341.7L658.5 342.8L652.9 345.5L650.4 349.8L648.6 351.3L646.2 352.0L644.2 355.0L642.8 355.8L642.6 358.9L645.1 359.0L647.8 360.2L648.4 362.3L650.0 362.1L651.7 363.3L651.8 365.3L653.4 367.2L661.8 366.4L662.8 367.4L662.9 369.6L666.6 372.9L669.0 372.7L669.3 374.5L668.8 375.8L670.3 379.0L667.3 381.0L666.9 382.0L663.3 383.4L661.7 382.3L660.0 379.9L659.9 378.1L655.2 377.2L654.1 378.5L653.7 380.0L654.8 381.1L653.9 382.8L654.9 385.8L651.9 386.6L650.4 387.5L649.5 394.2L647.3 395.4L644.6 394.6L643.4 395.4L643.3 397.1L644.0 397.8L648.0 399.7L648.2 404.7L650.8 405.3L652.1 406.3L653.8 408.3L658.5 405.8L659.0 419.8L655.3 420.0L653.3 420.9L651.1 425.1L650.9 426.9L649.5 427.3L647.1 423.6L646.3 425.0L645.1 425.8L641.5 425.5L639.6 424.1L638.2 424.0L638.3 420.8L637.4 420.4L635.3 420.9L633.9 419.5L632.0 418.8L631.1 420.0L629.3 420.7L629.1 419.1L628.0 418.8L626.6 416.4L625.6 408.0L623.9 408.6L622.5 410.3L615.1 407.9L610.6 409.3L607.2 408.8L603.4 409.3L595.6 406.1L594.6 404.5L593.3 404.0L591.8 404.3L583.7 393.1L583.2 385.7L577.4 380.4L577.8 375.0L575.0 373.1L575.7 371.9L573.4 369.0L573.5 366.4L576.5 367.0L581.9 365.5L582.3 364.2L585.8 362.6L592.2 361.8L594.2 359.0L596.4 357.6L598.4 357.4L599.6 358.3L599.9 354.7L604.2 355.0L607.1 355.0L609.5 353.3L611.4 354.6L612.9 354.6L621.0 349.9L623.8 347.0L625.5 333.5L629.6 333.5L630.7 335.0L632.2 335.6L635.0 335.6L638.2 337.6L640.6 337.4L643.5 338.0L643.9 339.1L644.8 339.1L646.7 336.8L648.9 337.2L649.7 338.6L650.6 338.6L652.2 337.3Z"/>
  <path class="" data-province="辽宁" d="M758.7 280.4L757.6 280.4L758.8 279.5L758.7 280.4ZM763.2 278.6L761.6 278.7L760.4 277.9L763.2 278.6ZM742.7 274.4L743.8 274.6L743.9 276.3L741.8 276.2L741.4 275.4L742.7 274.4ZM809.5 248.4L808.6 249.3L809.2 250.1L807.3 249.9L806.9 251.0L805.1 252.3L799.1 254.6L799.1 256.0L797.1 255.5L789.0 262.8L789.0 264.3L787.8 266.0L785.2 267.8L779.1 267.9L777.7 266.5L777.1 268.7L776.2 268.5L774.3 269.7L773.9 268.6L771.2 269.7L772.1 270.3L770.7 271.0L768.1 270.7L767.4 272.0L765.7 271.9L756.5 277.4L756.3 278.2L754.4 279.8L754.6 280.9L751.5 283.4L750.0 282.9L751.0 283.9L750.5 284.6L749.1 283.1L747.0 283.7L746.4 284.5L748.1 286.0L739.6 288.7L739.1 284.6L747.6 281.9L747.7 281.0L746.4 279.9L749.3 276.5L745.7 276.7L744.8 276.2L744.0 273.9L742.0 274.1L740.7 273.6L745.7 270.8L744.3 269.4L745.5 267.3L750.7 264.8L757.3 255.2L754.8 252.9L753.4 250.6L750.4 248.9L750.0 246.7L749.2 247.0L748.6 248.6L746.1 248.7L742.8 246.9L741.9 247.7L740.0 247.2L738.5 248.3L738.0 249.6L737.1 248.9L736.4 250.7L737.6 251.1L734.6 251.9L734.2 253.3L730.3 257.1L731.0 257.7L728.6 261.0L719.6 264.9L717.9 262.8L718.0 260.8L716.3 260.7L715.2 254.4L711.1 254.6L709.5 252.9L709.5 251.4L707.5 252.3L704.3 249.1L705.1 246.6L706.7 245.8L705.6 245.3L706.0 244.3L712.1 238.7L711.1 231.1L712.2 224.9L710.3 223.2L714.4 219.4L715.2 219.8L716.2 222.1L719.2 222.9L719.0 224.6L722.4 229.5L722.5 232.4L723.6 232.4L729.1 226.1L729.7 224.0L735.9 221.2L737.8 221.9L742.9 217.4L745.6 216.7L747.2 218.3L748.4 218.2L753.3 213.2L757.2 214.8L759.2 214.1L758.3 211.7L758.7 210.7L760.0 210.8L763.8 212.8L770.0 211.2L770.8 209.0L772.6 207.6L773.4 207.7L777.4 206.4L778.7 201.3L779.5 199.0L780.4 199.4L783.5 202.1L787.7 203.7L787.9 205.0L789.8 206.4L789.3 210.1L790.7 210.8L795.1 205.9L796.8 205.7L797.0 206.3L796.6 210.1L798.5 213.1L798.1 214.5L799.0 214.6L800.2 215.9L800.3 217.5L801.9 219.2L801.5 220.5L802.9 221.0L803.8 223.7L806.1 224.0L805.8 224.9L803.3 227.7L803.4 232.9L805.6 232.9L805.9 234.9L808.7 240.3L810.1 241.1L810.5 243.1L807.6 247.4L809.3 247.8L809.5 248.4Z"/>
  <path class="" data-province="山东" d="M710.9 357.7L709.3 357.2L707.7 358.2L704.5 358.5L702.9 363.9L701.7 365.2L700.4 364.7L698.5 365.1L697.7 367.1L697.2 369.7L696.5 370.2L693.7 370.5L693.2 368.9L693.5 367.7L692.6 367.3L692.0 365.8L689.9 365.3L688.0 365.8L687.7 368.1L683.0 369.1L681.0 367.0L678.6 369.6L676.8 364.7L673.2 360.0L667.7 361.1L666.9 362.3L666.3 366.0L664.6 367.2L662.8 367.4L661.8 366.4L653.4 367.2L651.8 365.3L651.7 363.3L650.0 362.1L648.4 362.3L647.8 360.2L645.1 359.0L642.6 358.9L642.8 355.8L644.2 355.0L646.2 352.0L648.6 351.3L650.4 349.8L652.9 345.5L658.5 342.8L658.4 341.7L660.0 340.5L661.0 340.9L661.7 338.3L652.0 342.1L651.5 343.6L650.2 344.6L650.2 341.6L651.6 340.4L652.2 337.3L649.4 331.3L650.4 328.9L652.5 326.0L654.7 325.3L657.0 322.4L660.1 315.3L664.4 314.0L663.9 312.6L665.9 309.6L666.9 312.3L672.8 305.5L682.3 305.4L688.7 297.3L690.3 298.0L692.5 299.8L699.5 301.2L701.3 299.7L704.1 299.6L705.8 300.6L705.4 301.4L706.5 303.2L710.3 306.8L710.5 308.7L708.4 307.4L707.1 307.7L706.1 316.1L708.8 318.0L711.0 318.8L713.3 319.1L718.4 318.5L720.3 316.7L719.8 314.6L722.8 313.0L726.5 310.1L726.6 308.8L725.3 308.4L733.3 305.6L736.1 305.9L737.8 307.9L739.4 308.1L739.3 309.8L740.2 310.5L743.0 309.8L743.1 310.7L744.6 312.5L746.4 313.3L748.5 312.6L751.7 312.6L752.0 313.4L753.0 311.4L754.5 310.7L754.6 312.2L755.5 313.5L756.1 312.7L763.2 313.6L761.4 314.9L761.2 316.2L762.3 317.7L760.5 318.4L758.9 321.3L760.9 320.8L760.7 322.4L758.8 323.0L759.3 323.8L757.6 324.7L755.5 324.2L756.7 323.3L754.1 322.3L753.1 323.3L753.2 321.7L751.5 321.5L751.9 322.5L747.1 324.6L747.0 326.2L744.2 324.8L744.2 326.0L739.7 327.6L737.8 329.1L736.4 329.1L735.0 328.0L733.8 328.6L733.3 329.8L735.2 329.0L736.5 331.6L735.2 333.1L734.7 331.7L733.4 331.6L732.5 333.0L733.0 334.0L731.8 334.2L732.6 337.6L730.4 338.1L727.4 339.5L726.4 339.1L727.5 336.7L726.3 335.3L726.3 336.9L725.3 336.1L723.7 336.3L723.5 338.5L726.3 341.0L722.5 343.2L722.0 345.4L721.0 344.8L720.5 347.4L719.0 346.9L718.0 348.3L717.8 347.4L716.5 348.1L715.0 352.0L713.1 353.1L712.1 357.3L710.9 357.7Z"/>
  <path class="" data-province="天津" d="M691.3 279.4L689.4 279.8L687.5 281.4L687.7 283.9L686.7 283.9L684.8 287.1L684.2 290.7L680.0 291.9L671.4 287.0L670.9 285.2L671.4 283.3L674.2 281.6L672.7 272.2L673.9 270.6L678.2 271.9L679.0 269.2L678.7 268.3L679.8 267.3L678.6 266.9L678.1 265.6L681.6 260.9L681.3 259.8L687.4 263.5L687.6 265.3L685.3 265.3L683.5 264.9L684.0 269.4L685.6 271.5L685.3 272.4L687.1 273.4L687.4 272.6L689.6 272.9L689.6 276.0L691.3 277.1L691.3 279.4Z"/>
  <path class="" data-province="江西" d="M693.9 464.9L691.2 469.9L697.7 478.4L698.5 485.2L698.1 486.0L696.6 487.4L696.8 489.6L688.5 492.7L687.3 495.0L685.1 494.0L683.7 492.1L681.2 494.0L680.2 494.2L680.3 495.8L679.3 496.7L677.6 499.7L678.2 505.2L676.5 508.3L674.7 510.0L670.8 510.7L668.9 512.9L668.2 516.3L668.8 518.7L670.0 520.0L669.6 521.8L668.5 521.5L666.6 523.9L666.9 526.4L666.6 528.2L665.4 530.2L663.2 531.1L662.6 531.8L663.0 533.5L660.9 536.2L660.2 541.6L659.1 543.7L658.1 544.5L658.6 546.9L658.8 549.8L656.8 551.4L656.6 553.0L657.4 556.5L656.0 556.8L651.6 552.3L636.3 557.7L633.6 554.9L632.4 554.5L634.4 552.8L635.7 550.4L636.1 548.6L638.2 547.2L641.0 545.8L640.3 545.1L640.6 542.7L638.7 541.4L638.5 540.5L634.0 542.7L631.5 542.4L630.2 543.2L629.9 540.0L628.6 539.7L629.5 537.2L628.5 535.7L628.3 534.0L630.0 530.6L630.4 528.0L633.0 526.1L632.3 525.1L630.7 526.0L628.6 526.1L631.1 518.4L627.7 516.9L627.2 513.7L628.1 511.4L626.0 507.7L627.1 506.1L627.5 503.9L623.6 503.4L623.0 499.2L625.7 491.9L628.5 491.1L633.2 483.8L630.6 480.8L631.5 479.9L632.0 476.6L629.9 474.2L628.3 473.4L628.3 471.3L630.7 468.8L633.5 467.9L634.2 465.8L637.0 466.6L640.6 465.2L642.3 465.2L644.7 462.0L646.1 462.1L646.9 463.0L647.3 461.5L646.4 460.2L649.3 461.0L651.5 459.1L652.6 456.3L656.0 456.3L658.3 458.6L664.1 457.8L666.5 456.0L668.0 455.9L670.5 452.7L672.6 453.3L674.1 455.2L672.7 458.3L670.8 459.2L670.4 460.7L671.6 462.2L674.1 462.0L675.1 460.2L677.1 459.2L677.5 457.7L676.9 456.7L677.8 455.4L678.8 455.1L679.4 456.6L682.1 456.9L682.0 458.0L683.9 460.8L685.8 461.1L686.7 462.1L689.6 462.2L691.0 461.8L692.9 462.8L693.0 464.2L693.9 464.9Z"/>
  <path class="" data-province="江苏" d="M720.4 414.3L718.7 413.6L719.1 412.0L717.6 410.7L718.6 410.4L719.4 411.1L720.4 414.3ZM742.5 425.5L740.1 426.1L738.2 431.9L735.2 432.2L735.9 434.6L732.6 435.2L732.8 436.9L730.8 437.7L729.5 439.3L728.8 436.9L723.9 435.9L721.0 433.2L720.9 432.0L717.9 431.5L716.2 432.3L712.1 431.2L711.9 429.4L703.7 430.5L702.8 429.5L702.7 428.0L703.9 427.3L704.7 424.9L704.4 422.9L701.5 422.4L701.7 421.5L698.5 419.9L698.6 418.6L696.6 416.9L697.4 415.8L697.1 414.9L698.9 413.3L699.1 412.1L701.2 411.4L701.7 409.5L699.7 405.0L702.9 404.3L704.9 404.6L707.8 407.5L709.6 404.7L709.0 400.4L706.7 398.7L706.5 397.7L704.4 397.5L702.3 402.1L697.3 402.1L695.8 401.2L694.5 393.6L692.4 394.2L691.1 393.8L690.2 392.5L692.2 387.7L692.9 387.9L693.1 385.4L693.9 383.9L693.1 382.5L690.1 383.1L687.0 383.2L687.3 380.3L686.4 380.2L685.4 377.9L676.4 375.1L675.1 370.7L672.8 370.5L666.3 366.0L666.9 362.3L667.7 361.1L673.2 360.0L676.8 364.7L678.6 369.6L681.0 367.0L683.0 369.1L687.7 368.1L688.0 365.8L689.9 365.3L692.0 365.8L692.6 367.3L693.5 367.7L693.2 368.9L693.7 370.5L696.5 370.2L697.2 369.7L697.7 367.1L698.5 365.1L700.4 364.7L701.7 365.2L702.9 363.9L704.5 358.5L707.7 358.2L709.3 357.2L710.9 357.7L710.0 358.0L709.5 359.2L709.5 364.5L710.3 363.7L711.9 363.3L713.4 364.0L713.6 365.1L716.4 367.7L725.9 372.2L729.6 382.7L729.4 384.7L733.4 391.9L734.7 396.5L735.7 396.7L735.2 403.2L743.3 408.6L743.7 411.2L742.9 411.4L744.1 413.7L747.3 414.7L749.9 416.8L751.4 420.5L751.3 421.4L749.8 421.7L747.7 421.1L741.7 418.0L739.0 419.7L736.9 419.4L736.4 418.1L734.4 415.5L731.7 414.4L729.5 414.3L727.5 415.4L726.0 416.9L723.9 417.0L721.8 415.6L719.1 410.0L717.2 409.8L716.5 412.2L717.2 411.4L718.7 412.1L718.6 413.7L719.7 414.2L722.0 416.8L725.5 417.6L728.9 416.2L728.9 415.5L733.4 416.3L734.6 419.1L733.4 419.6L737.5 420.7L739.5 421.9L742.5 425.5Z"/>
  <path class="" data-province="上海" d="M750.4 429.2L749.5 427.8L750.6 427.9L750.4 429.2ZM749.3 428.6L746.5 426.7L748.4 427.2L749.3 428.6ZM742.5 425.5L745.7 427.9L748.4 429.5L750.8 432.9L752.3 436.4L741.5 440.6L741.2 439.6L738.9 437.9L737.0 438.0L736.8 434.6L735.9 434.6L735.2 432.2L738.2 431.9L740.1 426.1L742.5 425.5ZM751.3 426.2L750.4 426.5L742.1 422.4L740.0 420.0L741.3 418.9L750.2 423.3L752.3 424.6L752.3 425.8L751.3 426.2Z"/>
  <path class="" data-province="浙江" d="M741.7 489.6L739.6 490.7L739.1 488.9L740.8 487.4L741.7 489.6ZM752.0 470.7L751.6 471.4L750.6 469.8L751.8 469.6L752.0 470.7ZM754.8 458.7L755.5 459.9L754.6 460.0L754.8 458.7ZM757.5 457.8L756.2 456.8L757.4 456.9L757.5 457.8ZM758.0 454.7L758.9 454.6L758.5 456.3L758.0 454.7ZM750.9 454.0L750.0 453.6L750.3 452.1L751.2 452.8L750.9 454.0ZM755.3 451.8L757.6 453.1L757.2 455.0L755.5 453.8L752.8 453.7L752.3 450.9L754.0 450.9L755.3 451.8ZM755.9 449.0L753.8 448.2L755.9 447.1L755.9 449.0ZM757.1 444.8L758.3 444.7L759.1 445.9L757.0 445.7L757.1 444.8ZM735.9 434.6L736.8 434.6L737.0 438.0L738.9 437.9L741.2 439.6L741.5 440.6L739.3 442.4L736.9 443.4L736.4 445.7L734.7 447.9L734.0 448.1L732.6 446.3L731.4 446.0L728.5 446.3L727.8 449.0L728.8 446.7L731.9 446.9L733.2 449.3L735.6 450.5L737.2 449.7L739.6 447.5L741.2 447.1L743.1 447.6L745.1 449.5L747.7 453.7L751.3 455.2L751.7 455.8L754.7 455.9L752.4 457.0L748.1 461.8L745.4 463.0L744.1 462.7L744.1 464.8L744.6 463.6L745.1 465.1L746.0 463.6L748.4 462.4L749.2 463.7L750.3 462.5L748.7 462.3L749.5 461.2L751.3 460.5L752.1 461.2L751.3 462.7L752.2 464.1L751.3 465.2L751.2 467.2L751.8 468.9L749.3 469.4L749.6 465.5L748.7 468.8L747.3 469.1L746.3 467.1L745.4 467.4L744.8 469.3L743.5 470.6L746.8 470.5L746.7 471.5L747.9 472.3L747.8 474.2L744.9 473.6L746.9 474.9L747.6 475.9L746.6 477.8L744.3 478.5L747.4 485.1L746.3 486.7L746.2 485.8L744.5 485.3L742.4 488.7L741.3 487.2L740.1 484.3L736.7 491.7L731.0 491.0L732.8 491.3L734.8 492.3L735.0 494.2L731.1 499.6L732.3 501.1L731.7 503.2L730.3 502.8L729.9 506.6L728.4 506.5L728.2 504.8L727.2 503.2L725.7 502.7L718.4 504.4L716.0 497.8L715.0 497.7L713.7 500.5L712.6 500.7L710.6 502.4L705.3 501.4L704.9 496.8L703.8 493.2L702.7 492.0L703.0 487.9L703.4 487.0L702.5 485.3L698.9 486.5L698.1 486.0L697.7 478.4L691.2 469.9L692.0 467.4L693.2 467.0L693.9 464.9L696.9 464.0L702.3 458.8L704.9 454.0L704.7 447.6L710.4 447.9L711.6 446.7L712.6 446.7L711.5 443.9L710.3 443.3L710.7 442.2L712.5 440.7L713.4 441.6L714.2 439.2L715.4 437.7L716.2 432.3L717.9 431.5L720.9 432.0L721.0 433.2L723.9 435.9L728.8 436.9L729.5 439.3L730.8 437.7L732.8 436.9L732.6 435.2L735.9 434.6Z"/>
  <path class="" data-province="吉林" d="M894.8 199.1L893.7 205.7L892.2 207.1L892.5 209.6L890.8 210.8L887.3 210.5L881.8 212.9L881.7 214.0L883.3 214.0L884.5 216.1L883.7 216.8L879.3 212.8L879.2 209.8L874.5 207.8L873.2 208.7L871.9 212.7L871.0 218.5L869.2 218.4L868.4 219.9L866.8 218.5L865.4 218.4L863.9 219.7L863.4 222.7L858.4 226.3L845.3 227.0L845.4 229.1L849.5 234.7L847.7 238.1L847.0 238.6L845.2 238.0L844.8 236.9L842.5 237.6L839.2 237.6L837.8 236.5L831.0 235.6L832.2 234.7L828.4 230.6L826.2 232.6L823.6 233.2L821.8 237.5L822.1 239.1L820.9 239.2L818.1 243.0L816.3 244.0L814.3 247.5L809.5 248.4L809.3 247.8L807.6 247.4L810.5 243.1L810.1 241.1L808.7 240.3L805.9 234.9L805.6 232.9L803.4 232.9L803.3 227.7L805.8 224.9L806.1 224.0L803.8 223.7L802.9 221.0L801.5 220.5L801.9 219.2L800.3 217.5L800.2 215.9L799.0 214.6L798.1 214.5L798.5 213.1L796.6 210.1L797.0 206.3L796.8 205.7L795.1 205.9L790.7 210.8L789.3 210.1L789.8 206.4L787.9 205.0L787.7 203.7L783.5 202.1L780.4 199.4L779.5 199.0L778.7 201.3L777.3 201.0L773.8 199.4L773.6 197.7L774.4 196.3L775.6 196.8L776.0 194.8L773.0 188.2L773.5 186.2L769.8 181.4L769.5 179.0L758.4 184.9L756.5 184.4L757.0 180.9L754.0 177.3L753.3 175.9L752.8 167.9L755.6 166.3L756.2 164.7L754.7 161.6L753.1 161.0L752.1 159.4L752.4 158.0L751.6 157.1L748.5 157.2L747.3 156.1L748.7 155.0L749.8 152.9L749.2 151.0L752.6 151.6L756.3 154.8L757.2 154.4L758.8 152.2L763.5 156.6L764.5 155.2L764.9 152.9L764.9 149.5L769.1 149.2L770.5 147.1L772.0 146.2L782.7 145.7L782.7 147.6L783.9 150.9L782.9 152.1L784.3 153.7L783.7 155.7L788.9 160.2L789.1 161.5L790.4 161.4L792.0 162.3L792.4 161.5L796.8 161.7L797.2 160.2L799.1 160.7L800.3 162.7L803.4 162.3L804.5 162.6L805.4 161.1L806.7 161.2L809.5 160.5L809.5 163.3L811.6 165.7L816.4 167.5L822.7 165.5L826.2 167.3L828.7 167.6L830.6 171.4L829.1 173.4L829.9 175.2L830.1 177.7L831.7 176.7L833.6 177.4L835.2 176.8L838.0 178.2L837.3 179.2L837.0 181.3L840.9 187.4L842.5 188.0L845.6 186.7L845.5 182.6L847.2 182.4L848.0 180.7L850.3 179.6L851.2 180.5L851.7 183.1L851.6 186.1L858.4 197.4L860.4 197.7L863.7 196.4L863.5 194.0L864.0 193.1L868.4 191.5L871.7 191.4L872.5 189.7L874.2 188.6L877.1 192.0L880.7 188.1L880.6 190.4L881.9 195.3L884.6 196.1L887.8 198.3L888.4 199.5L889.6 199.4L890.8 198.3L893.2 199.7L894.8 199.1Z"/>
  <path class="" data-province="内蒙古" d="M743.6 12.9L746.6 14.4L749.6 18.5L740.0 26.6L744.8 29.4L747.9 30.5L750.0 32.7L752.9 32.5L755.3 28.7L757.8 29.2L760.3 32.4L763.9 33.1L764.5 34.0L762.5 35.2L762.4 36.0L764.2 40.7L763.6 43.4L767.3 49.4L769.4 50.8L778.2 52.9L780.1 52.3L781.3 50.8L788.7 51.4L791.1 49.9L793.6 50.4L796.0 49.8L800.7 45.1L803.8 45.7L806.2 47.1L807.6 49.4L809.8 51.9L813.8 54.7L814.9 57.1L813.8 59.2L810.3 61.4L811.2 65.0L808.7 67.1L807.0 67.9L806.5 69.7L805.1 71.9L802.8 73.6L803.3 75.3L801.6 76.5L802.5 77.9L802.0 79.4L802.1 81.9L800.6 82.1L802.4 84.3L802.8 86.2L802.1 90.4L801.1 91.7L796.6 91.2L791.6 102.6L791.4 106.4L792.0 109.0L790.8 111.3L787.0 103.4L776.9 112.4L775.5 113.3L772.5 114.5L771.2 116.9L761.3 122.3L760.2 124.6L758.9 126.1L761.5 129.8L770.9 136.8L773.1 135.5L773.8 134.3L775.2 134.7L775.5 135.8L776.8 134.7L777.3 136.6L776.2 138.2L774.1 139.9L768.1 140.2L767.8 143.5L770.5 147.1L769.1 149.2L764.9 149.5L764.9 152.9L764.5 155.2L763.5 156.6L758.8 152.2L757.2 154.4L756.3 154.8L752.6 151.6L749.2 151.0L749.8 152.9L748.7 155.0L747.3 156.1L748.5 157.2L751.6 157.1L752.4 158.0L752.1 159.4L753.1 161.0L754.7 161.6L756.2 164.7L755.6 166.3L752.8 167.9L753.3 175.9L754.0 177.3L757.0 180.9L756.5 184.4L758.4 184.9L769.5 179.0L769.8 181.4L773.5 186.2L773.0 188.2L776.0 194.8L775.6 196.8L774.4 196.3L773.6 197.7L773.8 199.4L777.3 201.0L778.7 201.3L777.4 206.4L773.4 207.7L772.6 207.6L770.8 209.0L770.0 211.2L767.6 212.0L766.4 212.8L763.8 212.8L760.0 210.8L758.7 210.7L758.3 211.7L759.2 214.1L757.2 214.8L753.3 213.2L748.4 218.2L747.2 218.3L745.6 216.7L742.9 217.4L737.8 221.9L735.9 221.2L729.7 224.0L729.1 226.1L723.6 232.4L722.5 232.4L722.4 229.5L719.0 224.6L719.2 222.9L716.2 222.1L715.2 219.8L714.4 219.4L710.3 223.2L712.2 224.9L711.1 231.1L712.5 236.8L712.1 238.7L710.1 240.6L710.2 239.7L703.4 238.6L696.6 239.4L696.0 235.0L695.0 234.6L693.6 232.2L693.8 230.8L695.5 231.5L696.1 229.4L695.3 225.5L693.3 226.4L692.5 223.4L691.0 222.7L691.8 221.6L691.6 219.6L688.1 216.1L687.9 215.3L685.0 216.4L684.0 215.1L682.8 216.5L682.2 218.2L679.6 217.7L676.7 218.1L674.1 219.4L673.2 221.0L674.0 222.7L673.7 226.5L669.7 228.3L666.3 226.7L661.1 230.6L659.5 228.2L658.3 228.2L654.0 230.8L650.3 232.1L650.4 234.1L648.6 234.7L646.6 234.1L643.4 234.2L643.9 228.0L642.1 223.5L641.3 224.2L638.9 224.2L633.7 229.5L633.0 231.3L632.8 234.5L630.2 235.7L628.7 237.8L629.2 242.9L628.2 242.8L627.0 244.0L632.1 250.6L630.2 252.7L630.9 254.3L630.4 255.4L619.5 258.6L617.9 256.8L615.7 257.0L609.8 261.4L608.2 260.2L605.2 259.2L600.6 264.6L597.8 270.5L595.4 272.3L594.0 271.5L591.2 271.2L588.9 275.2L586.7 275.5L585.4 276.3L584.3 275.6L585.6 273.6L585.5 272.6L583.9 272.9L581.3 274.8L578.1 278.9L575.9 276.5L573.5 277.5L571.8 275.5L570.0 275.5L571.0 278.2L563.3 283.3L562.7 285.3L561.2 287.6L559.5 287.9L552.8 296.1L553.0 302.7L552.3 303.9L550.4 302.7L549.6 304.3L549.3 308.5L547.6 308.8L538.2 309.4L536.5 306.5L532.3 305.2L528.5 303.9L528.3 302.7L527.2 301.2L524.7 299.8L523.2 300.3L519.6 299.6L514.1 297.0L516.8 293.8L521.9 282.9L520.9 282.3L519.3 279.8L519.0 276.7L516.3 276.8L514.5 278.2L511.5 278.1L511.2 280.6L510.6 281.2L508.6 281.3L507.8 284.0L505.3 288.5L504.2 298.2L503.1 299.9L504.2 302.4L503.6 306.2L501.6 307.4L499.7 307.7L497.0 307.1L492.8 308.9L490.7 311.1L486.1 311.8L484.2 311.4L480.2 314.0L471.2 306.7L467.5 305.4L466.8 302.5L466.8 300.5L468.8 299.8L468.0 294.2L473.0 291.3L474.2 290.3L478.8 284.3L479.6 281.8L477.1 277.7L477.1 275.5L467.9 276.8L465.2 278.0L460.3 281.3L451.5 279.1L445.7 281.3L443.2 281.8L442.8 282.3L445.9 285.8L442.8 289.4L439.0 289.5L434.8 287.9L432.8 283.2L430.8 283.5L428.4 281.6L426.8 275.9L423.1 275.8L417.6 270.4L415.4 269.8L409.9 267.0L406.0 266.9L407.5 264.6L409.0 263.3L413.2 260.8L417.9 253.0L417.4 250.8L415.9 248.4L414.9 247.7L401.8 248.8L396.7 250.9L393.9 253.9L391.9 254.6L387.8 254.7L387.6 254.4L389.0 248.5L379.5 239.1L378.6 237.1L379.1 236.3L381.6 234.0L371.6 212.0L381.7 213.2L406.6 216.2L415.0 214.1L439.9 217.1L446.0 223.4L461.9 226.8L471.4 231.4L471.9 231.5L483.9 229.3L483.8 233.2L491.7 234.5L494.6 231.7L518.7 221.4L538.4 218.5L540.3 218.3L549.8 219.3L560.4 218.4L574.6 212.3L582.7 202.5L598.0 194.8L598.2 193.1L596.6 190.2L593.4 187.8L589.8 182.5L592.1 175.9L595.0 170.8L596.6 169.4L598.8 168.5L600.7 168.9L604.9 168.8L610.5 172.7L624.2 174.9L628.1 171.9L630.6 171.3L632.3 169.4L636.2 166.3L638.0 162.8L654.9 161.7L660.7 157.3L663.1 156.7L664.3 155.0L663.8 153.0L669.4 145.6L671.6 145.0L672.8 144.0L680.5 144.6L681.9 140.4L684.4 139.9L686.5 141.5L688.4 141.3L694.9 137.7L702.3 138.4L703.7 136.9L711.4 139.7L717.0 140.0L720.4 137.8L720.1 137.0L720.3 134.1L718.4 132.5L718.1 130.5L717.3 129.3L713.9 126.5L710.9 124.5L711.3 123.3L709.0 122.5L707.8 119.8L703.0 118.0L699.5 114.1L698.5 113.6L688.4 113.3L687.2 113.8L681.4 120.0L673.6 115.8L664.2 116.0L661.8 117.1L660.1 118.9L658.2 119.0L654.3 115.6L653.8 114.7L653.0 111.1L657.6 108.2L657.2 104.5L657.4 103.4L660.9 98.9L661.1 97.0L671.0 79.0L676.7 81.8L689.3 84.8L701.1 76.5L708.0 75.9L709.8 75.3L711.4 73.9L712.0 69.1L710.4 69.1L708.7 68.5L710.3 67.2L711.1 64.3L714.2 61.7L714.5 58.5L717.1 56.4L718.1 55.1L723.6 44.1L731.9 39.5L733.9 35.6L733.6 33.3L731.5 31.3L732.5 29.5L733.0 27.6L728.5 25.8L724.6 26.8L722.8 26.5L722.4 23.4L726.2 21.4L735.3 13.6L743.6 12.9Z"/>
  <path class="" data-province="黑龙江" d="M885.1 96.9L885.9 97.0L883.7 101.4L884.9 102.5L885.3 104.4L887.0 104.0L886.9 105.3L888.1 107.1L887.1 109.8L885.7 111.2L886.0 112.5L889.5 115.6L890.0 116.8L890.0 118.8L891.2 119.4L897.3 118.3L899.7 119.7L914.3 119.0L916.4 115.9L916.6 114.4L918.8 114.5L923.0 111.4L924.4 111.1L928.7 111.7L932.7 108.8L942.9 106.2L947.7 108.5L947.5 110.9L945.7 112.7L948.8 118.9L944.4 124.2L941.5 124.6L939.8 126.1L939.3 127.5L940.5 130.1L938.9 131.0L938.0 132.7L936.9 139.2L935.5 140.4L934.6 142.2L935.8 144.2L934.9 144.8L935.5 146.3L932.2 148.6L932.6 149.7L931.7 152.5L930.6 153.6L929.5 153.5L928.1 159.2L924.7 160.5L923.8 161.9L923.1 165.5L923.4 167.8L920.9 169.7L919.1 169.0L905.8 165.7L904.3 164.0L903.4 163.8L897.3 170.9L891.7 171.9L889.9 173.1L891.9 176.1L894.9 188.0L893.5 193.2L893.8 196.8L893.4 198.1L894.8 199.1L893.2 199.7L890.8 198.3L889.6 199.4L888.4 199.5L887.8 198.3L884.6 196.1L881.9 195.3L880.6 190.4L880.7 188.1L877.1 192.0L874.2 188.6L872.5 189.7L871.7 191.4L868.4 191.5L864.0 193.1L863.5 194.0L863.7 196.4L860.4 197.7L858.4 197.4L851.6 186.1L851.7 183.1L851.2 180.5L850.3 179.6L848.0 180.7L847.2 182.4L845.5 182.6L845.6 186.7L842.5 188.0L840.9 187.4L837.0 181.3L837.3 179.2L838.0 178.2L835.2 176.8L833.6 177.4L831.7 176.7L830.1 177.7L829.9 175.2L829.1 173.4L830.6 171.4L828.7 167.6L826.2 167.3L822.7 165.5L816.4 167.5L811.6 165.7L809.5 163.3L809.5 160.5L806.7 161.2L805.4 161.1L804.5 162.6L803.4 162.3L800.3 162.7L799.1 160.7L797.2 160.2L796.8 161.7L792.4 161.5L792.0 162.3L790.4 161.4L789.1 161.5L788.9 160.2L783.7 155.7L784.3 153.7L782.9 152.1L783.9 150.9L782.7 147.6L782.7 145.7L770.5 147.1L767.8 143.5L768.1 140.2L774.1 139.9L776.2 138.2L777.3 136.6L776.8 134.7L775.5 135.8L775.2 134.7L773.8 134.3L773.1 135.5L770.9 136.8L761.5 129.8L758.9 126.1L760.2 124.6L761.3 122.3L771.2 116.9L772.5 114.5L775.5 113.3L776.9 112.4L787.0 103.4L790.8 111.3L792.0 109.0L791.4 106.4L791.6 102.6L796.6 91.2L801.1 91.7L802.1 90.4L802.8 86.2L802.4 84.3L800.6 82.1L802.1 81.9L802.0 79.4L802.5 77.9L801.6 76.5L803.3 75.3L802.8 73.6L805.1 71.9L806.5 69.7L807.0 67.9L808.7 67.1L811.2 65.0L810.3 61.4L813.8 59.2L814.9 57.1L813.8 54.7L809.8 51.9L807.6 49.4L806.2 47.1L803.8 45.7L800.7 45.1L796.0 49.8L793.6 50.4L791.1 49.9L788.7 51.4L781.3 50.8L780.1 52.3L778.2 52.9L769.4 50.8L767.3 49.4L763.6 43.4L764.2 40.7L762.4 36.0L762.5 35.2L764.5 34.0L763.9 33.1L760.3 32.4L757.8 29.2L755.3 28.7L752.9 32.5L750.0 32.7L747.9 30.5L744.8 29.4L740.0 26.6L749.6 18.5L746.6 14.4L743.6 12.9L757.8 9.6L758.8 10.4L759.9 10.1L765.8 9.9L771.9 8.2L776.3 9.2L777.4 8.3L785.2 12.2L786.9 11.7L789.6 14.4L793.8 15.1L794.4 16.1L795.7 16.0L797.1 16.7L796.9 15.6L799.0 14.9L800.7 15.0L805.3 17.1L806.7 18.1L808.3 17.7L810.0 19.3L808.7 20.8L809.0 21.2L811.6 20.7L812.0 21.8L813.7 23.3L815.1 23.0L815.1 25.0L813.7 25.9L814.2 27.1L815.4 26.6L817.3 27.7L817.2 29.0L818.3 29.1L819.4 30.4L818.9 31.8L820.8 32.6L818.9 33.5L818.9 34.0L822.2 34.9L822.0 37.0L820.9 38.1L824.0 42.7L825.0 43.0L825.2 44.7L824.5 45.6L826.5 46.6L826.4 48.8L827.9 49.1L826.5 51.2L829.2 50.9L828.2 52.3L828.4 55.5L833.9 61.4L834.0 63.0L835.0 65.1L833.9 66.8L834.9 67.8L834.5 69.4L835.7 70.4L838.3 71.4L838.2 73.2L836.9 75.1L837.6 77.1L837.2 79.0L842.2 83.3L844.7 83.2L846.2 84.3L855.0 83.0L857.0 83.7L856.3 85.4L858.3 85.5L860.4 86.4L861.5 87.9L863.1 87.2L865.7 87.9L866.4 86.4L867.9 86.8L868.9 89.2L871.1 89.3L874.2 93.8L879.3 97.1L885.1 96.9Z"/>
  <path class="" data-province="台湾" d="M746.3 604.7L744.8 603.4L746.0 603.4L746.3 604.7ZM744.9 592.9L744.3 592.2L744.9 592.9ZM722.2 577.7L723.8 575.6L722.2 577.7ZM715.9 574.8L716.8 575.7L714.9 576.1L715.9 574.8ZM713.6 575.4L714.3 573.7L713.6 575.4ZM715.5 574.2L715.3 573.2L715.5 574.2ZM698.1 557.6L698.1 559.3L695.6 559.5L695.5 558.1L698.1 557.6ZM747.0 544.0L752.7 548.2L749.8 551.4L749.8 554.9L750.8 555.8L746.6 565.7L743.4 583.3L735.5 598.0L734.8 606.7L732.7 605.9L731.5 599.4L726.3 594.0L727.0 595.0L725.6 592.5L724.5 585.4L722.8 585.2L724.4 579.2L724.1 574.0L730.5 559.8L732.7 555.6L734.6 554.5L737.8 547.7L744.1 545.6L743.4 544.6L744.9 542.9L747.0 544.0Z"/>
  <path class="" data-province="香港" d="M639.1 597.1L637.8 602.1L635.1 602.1L628.3 602.1L627.0 601.3L628.3 597.1L632.4 594.6L635.1 594.6L636.4 594.6L636.4 597.1L639.1 597.1Z"/>
  <path class="" data-province="澳门" d="M623.6 601.8L623.8 602.5L622.9 602.9L622.8 601.1L623.3 601.1L623.6 601.8Z"/>
  <path class="islands" data-province="南海诸岛" d="M1022.7 488.7L1016.8 497.2L1022.7 488.7ZM1008.2 514.4L1003.5 523.4L1008.2 514.4ZM1001.1 542.7L1000.9 551.9L1001.1 542.7ZM1000.2 580.8L996.7 591.1L1000.2 580.8ZM979.0 618.6L973.4 626.2L979.0 618.6ZM953.0 658.7L944.7 662.2L953.0 658.7ZM918.1 637.0L917.5 627.3L918.1 637.0ZM931.6 587.9L933.6 578.5L931.6 587.9ZM930.0 550.8L925.8 541.0L930.0 550.8ZM906.4 481.4L1033.3 481.4L906.4 481.4ZM1033.3 481.4L1033.3 670.5L1033.3 481.4ZM1033.3 670.5L906.4 670.5L1033.3 670.5ZM906.4 670.5L906.4 481.4L906.4 670.5ZM906.4 481.4L965.5 481.4L961.7 487.1L955.5 487.0L953.8 488.5L951.8 491.0L950.8 489.0L947.0 488.0L944.3 489.5L936.7 491.7L935.8 494.5L934.2 494.7L932.7 495.9L935.4 499.8L934.7 501.6L932.2 502.6L930.4 501.1L928.9 497.1L929.4 492.1L930.9 491.0L924.3 491.3L924.7 490.0L921.9 489.2L919.1 489.9L911.7 490.5L908.9 487.1L906.4 486.2L906.4 481.4ZM927.3 506.2L925.7 505.9L924.4 507.3L924.9 508.6L920.7 511.2L920.4 513.7L920.6 516.0L920.8 519.4L923.5 520.7L927.6 522.4L929.2 521.7L929.4 520.1L931.4 520.2L935.2 516.7L935.5 514.2L936.6 510.5L939.0 508.3L938.4 505.0L936.9 504.8L936.4 503.6L930.9 505.8L930.4 505.1L928.9 504.9L927.9 505.2L927.3 506.2ZM1010.6 481.4L1015.3 481.4L1014.3 487.2L1013.3 486.9L1013.3 485.1L1012.3 482.6L1010.6 481.4Z"/>
  </g>
</svg>
